<svg width="19" height="20" viewBox="0 0 19 20" fill="none" xmlns="http://www.w3.org/2000/svg">
<path d="M1.6186 0.578125C1.33072 0.578125 1.02967 0.678913 0.809953 0.907429C0.370641 1.36563 0.370641 2.13437 0.809953 2.59257L7.87642 9.95313L0.809953 17.3137C0.370641 17.7719 0.370641 18.5406 0.809953 18.9988C1.24938 19.4559 1.98783 19.4559 2.42725 18.9988L9.49361 11.6383L16.56 18.9988C16.9994 19.4559 17.7378 19.4559 18.1773 18.9988C18.6166 18.5406 18.6166 17.7719 18.1773 17.3137L11.1108 9.95313L18.1773 2.59257C18.6166 2.13437 18.6166 1.36563 18.1773 0.907429C17.9576 0.678913 17.6564 0.578125 17.3686 0.578125C17.0807 0.578125 16.7798 0.678913 16.56 0.907429L9.49361 8.26797L2.42725 0.907429C2.20754 0.678913 1.90649 0.578125 1.6186 0.578125Z" fill="white"/>
</svg>
