<svg width="137" height="174" viewBox="0 0 137 174" fill="none" xmlns="http://www.w3.org/2000/svg">
<rect y="-58" width="137" height="197" rx="20" fill="#CB5DFF"/>
<path d="M21 107.056C21 100.111 22.1077 94.1852 24.3231 89.2778C26.5385 84.2778 30.5078 78.7685 36.2309 72.75C41.8617 66.7315 45.7386 61.5926 47.8617 57.3333C50.0771 53.0741 51.1848 48.6296 51.1848 44C51.1848 39.8333 50.4925 36.963 49.1079 35.3889C47.8156 33.7222 45.8771 32.8889 43.2925 32.8889C38.0309 32.8889 35.4001 36.0833 35.4001 42.4722V52.8889H21V43.4444C21 35.5741 22.9385 29.5556 26.8154 25.3889C30.6924 21.1296 36.3232 19 43.7079 19C51.0925 19 56.7233 21.1296 60.6003 25.3889C64.4772 29.5556 66.4157 35.5741 66.4157 43.4444C66.4157 49.3704 64.9849 55.1574 62.1234 60.8056C59.3541 66.4537 54.5079 72.9352 47.5848 80.25C43.0617 85.0648 40.0155 89 38.4463 92.0556C36.877 95.0185 36.0924 98.213 36.0924 101.639V103.722H65.0311V117.611H21V107.056Z" fill="white"/>
<path d="M93.2921 119C85.9075 119 80.2767 116.917 76.3997 112.75C72.5228 108.491 70.5843 102.426 70.5843 94.5556V86.9167H84.9844V95.6667C84.9844 101.963 87.6152 105.111 92.8768 105.111C98.1383 105.111 100.769 101.963 100.769 95.6667V73.8611C100.769 67.4722 98.1383 64.2778 92.8768 64.2778C87.6152 64.2778 84.9844 67.4722 84.9844 73.8611V74.6944H70.5843L73.3535 20.3889H113.508V34.2778H86.9229L85.6767 57.4722H85.9536C88.8152 52.75 93.1998 50.3889 99.1076 50.3889C104.646 50.3889 108.846 52.287 111.708 56.0833C114.569 59.8796 116 65.3889 116 72.6111V94.5556C116 102.426 114.062 108.491 110.185 112.75C106.308 116.917 100.677 119 93.2921 119Z" fill="white"/>
<path d="M82.6278 139.012C82.6278 157.796 76.084 173.024 68.0119 173.024C59.9397 173.024 53.396 157.796 53.396 139.012C53.396 120.228 59.9397 105 68.0119 105C76.084 105 82.6278 120.228 82.6278 139.012Z" fill="#E73849"/>
<path d="M81.5877 144.427C74.628 161.875 62.908 173.594 55.4103 170.603C47.9127 167.612 47.4766 151.044 54.4364 133.597C61.3961 116.149 73.1161 104.43 80.6138 107.421C88.1114 110.411 88.5475 126.98 81.5877 144.427Z" fill="#E73849"/>
<path d="M78.3472 149.347C65.0648 162.629 49.6701 168.77 43.9622 163.062C38.2543 157.354 44.3947 141.959 57.6772 128.677C70.9597 115.394 86.3544 109.254 92.0623 114.962C97.7701 120.67 91.6297 136.065 78.3472 149.347Z" fill="#E73849"/>
<path d="M73.782 152.441C56.5236 159.857 39.9495 159.856 36.7626 152.44C33.5758 145.023 44.9831 132.999 62.2415 125.583C79.4999 118.167 96.0741 118.168 99.2609 125.584C102.448 133.001 91.0404 145.025 73.782 152.441Z" fill="#E73849"/>
<path d="M68.0119 153.628C49.2276 153.628 34 147.084 34 139.012C34 130.94 49.2276 124.396 68.0119 124.396C86.7961 124.396 102.024 130.94 102.024 139.012C102.024 147.084 86.7961 153.628 68.0119 153.628Z" fill="#E73849"/>
<path d="M62.5966 152.588C45.1493 145.628 33.4299 133.908 36.4207 126.41C39.4115 118.912 55.9799 118.476 73.4273 125.436C90.8746 132.396 102.594 144.116 99.6032 151.614C96.6124 159.111 80.044 159.547 62.5966 152.588Z" fill="#E73849"/>
<path d="M57.6772 149.347C44.3947 136.064 38.2543 120.67 43.9621 114.962C49.67 109.254 65.0647 115.394 78.3472 128.677C91.6297 141.959 97.7701 157.354 92.0622 163.062C86.3543 168.77 70.9596 162.629 57.6772 149.347Z" fill="#E73849"/>
<path d="M54.5831 144.782C47.1672 127.524 47.1677 110.95 54.5842 107.763C62.0006 104.576 74.0246 115.983 81.4405 133.242C88.8563 150.5 88.8559 167.074 81.4394 170.261C74.0229 173.448 61.999 162.041 54.5831 144.782Z" fill="#E73849"/>
<path d="M57.2333 159.941L75.5164 117.553H78.5815L60.2984 159.941H57.2333ZM74.8711 160.179C73.3117 160.179 72.0749 159.808 71.1607 159.067C70.2645 158.325 69.7895 157.221 69.7357 155.755C69.6999 154.271 69.682 152.991 69.682 151.914C69.682 150.819 69.682 149.741 69.682 148.682C69.6999 147.622 69.7178 146.394 69.7357 144.999C69.7716 143.568 70.2376 142.482 71.1338 141.74C72.048 140.999 73.2938 140.628 74.8711 140.628C76.5023 140.628 77.757 141.016 78.6353 141.793C79.5315 142.553 80.0065 143.621 80.0603 144.999C80.0961 145.706 80.1141 146.553 80.1141 147.542C80.132 148.531 80.141 149.556 80.141 150.616C80.141 151.675 80.132 152.664 80.1141 153.583C80.0961 154.483 80.0782 155.199 80.0603 155.729C80.0065 157.142 79.5315 158.237 78.6353 159.014C77.7391 159.791 76.4843 160.179 74.8711 160.179ZM74.8711 157.636C75.5164 157.636 75.9914 157.495 76.2961 157.212C76.6188 156.93 76.7891 156.576 76.807 156.152C76.8608 155.499 76.8966 154.687 76.9145 153.715C76.9504 152.726 76.9683 151.675 76.9683 150.563C76.9683 149.432 76.9504 148.346 76.9145 147.304C76.8966 146.262 76.8608 145.37 76.807 144.628C76.7891 144.187 76.6188 143.833 76.2961 143.568C75.9735 143.286 75.4985 143.145 74.8711 143.145C74.2796 143.145 73.8225 143.277 73.4999 143.542C73.1773 143.807 72.998 144.16 72.9622 144.602C72.9084 145.661 72.8725 146.942 72.8546 148.443C72.8367 149.927 72.8367 151.384 72.8546 152.814C72.8725 154.227 72.9084 155.367 72.9622 156.232C73.0159 156.603 73.2041 156.93 73.5268 157.212C73.8494 157.495 74.2975 157.636 74.8711 157.636ZM60.6211 136.919C59.0616 136.919 57.8248 136.548 56.9107 135.806C56.0145 135.064 55.5395 133.96 55.4857 132.495C55.4498 131.011 55.423 129.73 55.405 128.653C55.405 127.558 55.405 126.481 55.405 125.421C55.423 124.361 55.4498 123.134 55.4857 121.738C55.5215 120.308 55.9876 119.222 56.8838 118.48C57.798 117.738 59.0437 117.367 60.6211 117.367C62.2522 117.367 63.5069 117.756 64.3852 118.533C65.2815 119.292 65.7565 120.361 65.8102 121.738C65.8461 122.445 65.864 123.293 65.864 124.282C65.8819 125.271 65.8909 126.295 65.8909 127.355C65.8909 128.415 65.8819 129.404 65.864 130.322C65.8461 131.223 65.8282 131.938 65.8102 132.468C65.7565 133.881 65.2815 134.976 64.3852 135.753C63.489 136.53 62.2343 136.919 60.6211 136.919ZM60.6211 134.375C61.2664 134.375 61.7414 134.234 62.0461 133.952C62.3687 133.669 62.539 133.316 62.5569 132.892C62.5928 132.238 62.6286 131.426 62.6645 130.455C62.7003 129.466 62.7183 128.415 62.7183 127.302C62.7183 126.172 62.7003 125.085 62.6645 124.043C62.6466 123.001 62.6107 122.109 62.5569 121.368C62.539 120.926 62.3598 120.573 62.0192 120.308C61.6966 120.025 61.2305 119.884 60.6211 119.884C60.0296 119.884 59.5725 120.016 59.2499 120.281C58.9272 120.546 58.748 120.9 58.7121 121.341C58.6583 122.401 58.6225 123.681 58.6046 125.183C58.5866 126.666 58.5866 128.123 58.6046 129.554C58.6225 130.967 58.6583 132.106 58.7121 132.971C58.748 133.342 58.9272 133.669 59.2499 133.952C59.5904 134.234 60.0475 134.375 60.6211 134.375Z" fill="white"/>
</svg>
