<svg width="667" height="252" viewBox="0 0 667 252" fill="none" xmlns="http://www.w3.org/2000/svg">
<mask id="mask0_18_1418" style="mask-type:alpha" maskUnits="userSpaceOnUse" x="0" y="0" width="667" height="252">
<path d="M97.403 55.8584C85.9986 55.8584 76.9216 57.3712 70.1721 60.3969C63.6552 63.1898 60.3968 67.2628 60.3968 72.6159C60.3968 77.7362 63.3061 81.8092 69.1247 84.8349C75.176 87.8605 82.6238 90.7698 91.4681 93.5627C100.312 96.3557 109.855 99.4977 120.095 102.989C130.336 106.247 139.879 110.786 148.723 116.604C157.567 122.19 164.899 129.638 170.717 138.948C176.768 148.025 179.794 159.662 179.794 173.859C179.794 185.962 177.467 196.901 172.812 206.676C168.157 216.218 161.64 224.364 153.261 231.114C144.883 237.631 134.758 242.635 122.888 246.126C111.251 249.617 98.2176 251.363 83.7875 251.363C53.7637 251.363 25.8345 243.333 0 227.274L20.5978 178.049C29.442 183.867 38.519 188.289 47.8287 191.315C57.1384 194.108 67.1464 195.504 77.8526 195.504C90.6535 195.504 101.243 193.642 109.622 189.918C118.001 186.195 122.19 181.307 122.19 175.256C122.19 170.368 119.164 166.528 113.113 163.735C107.295 160.942 99.9632 158.382 91.1189 156.054C82.2747 153.494 72.6159 150.585 62.1424 147.326C51.9017 144.068 42.3592 139.646 33.515 134.06C24.6708 128.241 17.223 120.794 11.1717 111.717C5.35309 102.407 2.4438 90.4207 2.4438 75.7579C2.4438 51.7853 10.5898 33.1659 26.8818 19.8995C43.1739 6.63318 65.5172 0 93.9119 0C107.876 0 121.259 1.74557 134.06 5.23672C146.861 8.49512 158.498 13.4991 168.972 20.2487L148.374 69.4738C141.857 65.0517 134.293 61.6769 125.681 59.3495C117.07 57.0221 107.644 55.8584 97.403 55.8584Z" fill="white"/>
<path d="M211.283 3.49114H394.568V55.8584H270.632V98.1012H380.603V149.072H270.632V195.504H394.568V247.871H211.283V3.49114Z" fill="white"/>
<path d="M415.637 125.681C415.637 108.226 418.896 91.8172 425.413 76.4561C431.929 61.0951 440.774 47.8287 451.945 36.657C463.35 25.2526 476.616 16.292 491.744 9.77521C507.105 3.2584 523.63 0 541.319 0C559.007 0 575.416 3.2584 590.544 9.77521C605.905 16.292 619.171 25.2526 630.343 36.657C641.747 47.8287 650.708 61.0951 657.225 76.4561C663.742 91.8172 667 108.226 667 125.681C667 143.37 663.742 159.895 657.225 175.256C650.708 190.384 641.747 203.65 630.343 215.055C619.171 226.226 605.905 235.071 590.544 241.587C575.416 248.104 559.007 251.363 541.319 251.363C523.63 251.363 507.105 248.104 491.744 241.587C476.616 235.071 463.35 226.226 451.945 215.055C440.774 203.65 431.929 190.384 425.413 175.256C418.896 159.895 415.637 143.37 415.637 125.681ZM474.987 125.681C474.987 135.456 476.732 144.65 480.224 153.261C483.715 161.64 488.37 168.972 494.188 175.256C500.24 181.54 507.222 186.544 515.135 190.268C523.281 193.759 532.009 195.504 541.319 195.504C550.628 195.504 559.24 193.759 567.153 190.268C575.299 186.544 582.281 181.54 588.1 175.256C594.151 168.972 598.923 161.64 602.414 153.261C605.905 144.65 607.65 135.456 607.65 125.681C607.65 115.906 605.905 106.829 602.414 98.4503C598.923 89.8388 594.151 82.3911 588.1 76.107C582.281 69.8229 575.299 64.9353 567.153 61.4442C559.24 57.7203 550.628 55.8584 541.319 55.8584C532.009 55.8584 523.281 57.7203 515.135 61.4442C507.222 64.9353 500.24 69.8229 494.188 76.107C488.37 82.3911 483.715 89.8388 480.224 98.4503C476.732 106.829 474.987 115.906 474.987 125.681Z" fill="white"/>
</mask>
<g mask="url(#mask0_18_1418)">
<path d="M254.563 280.221C162.612 293.543 85.4467 304.722 -57.2186 289.15L-57.3631 290.27C85.5224 305.866 162.867 294.661 254.848 281.334C264.555 279.928 274.425 278.498 284.552 277.074C390.591 262.158 524.955 247.811 796.057 267.333L796.138 266.207C524.906 246.676 390.421 261.028 284.272 275.96C274.141 277.385 264.27 278.815 254.563 280.221Z" fill="url(#paint0_linear_18_1418)"/>
<path d="M-40.7812 -115.961L-41.0379 -115.337C-40.8659 -115.286 -40.6938 -115.236 -40.5215 -115.186L-41.0338 -113.94C69.0009 -81.8554 243.874 -40.2694 410.919 -19.7831C494.44 -9.54012 576.057 -4.56525 646.657 -8.70613C717.224 -12.8451 776.975 -26.1012 816.58 -52.4605L815.724 -53.294C816.009 -53.4809 816.293 -53.6686 816.576 -53.8569L816.15 -54.2712C816.293 -54.3656 816.436 -54.4603 816.579 -54.5551L814.767 -56.3193C775.797 -30.3827 716.719 -17.1817 646.369 -13.0555C576.052 -8.9313 494.662 -13.8834 411.252 -24.1127C244.436 -44.5709 69.7482 -86.1108 -40.1616 -118.159L-41.0352 -116.035L-40.7812 -115.961Z" fill="url(#paint1_linear_18_1418)"/>
<path d="M-56.9662 282.278C86.6161 298.311 165.441 287.615 260.098 274.771L260.124 274.767C268.822 273.587 277.653 272.389 286.681 271.191C394.018 256.955 528.985 242.871 796.44 260.994L796.365 262.142C529.04 244.029 394.19 258.106 286.953 272.329C277.924 273.526 269.09 274.725 260.388 275.906L260.372 275.908C165.685 288.757 86.6827 299.477 -57.1179 283.42L-56.9662 282.278Z" fill="url(#paint2_linear_18_1418)"/>
<path d="M266.071 269.312C168.513 281.687 87.9326 291.91 -56.7113 275.392L-56.8703 276.555C87.9899 293.097 168.746 282.853 266.334 270.473L266.336 270.473C273.896 269.514 281.557 268.542 289.357 267.568C397.792 254.038 533.127 240.231 796.676 256.937L796.745 255.766C533.066 239.051 397.618 252.866 289.093 266.407C281.292 267.381 273.631 268.353 266.071 269.312Z" fill="url(#paint3_linear_18_1418)"/>
<path d="M-56.4554 268.488C89.411 285.52 171.855 275.762 272.539 263.844L272.543 263.843C278.787 263.104 285.102 262.357 291.506 261.607C401.218 248.76 537.148 235.215 797.05 250.521L796.988 251.714C537.215 236.416 401.394 249.954 291.761 262.791C285.373 263.539 279.074 264.285 272.843 265.023L272.79 265.029C172.076 276.95 89.459 286.73 -56.622 269.673L-56.4554 268.488Z" fill="url(#paint4_linear_18_1418)"/>
<path d="M279.569 258.365C175.503 269.836 91.0725 279.143 -56.1966 261.565L-56.371 262.77C91.111 280.375 175.714 271.049 279.809 259.574C284.552 259.051 289.336 258.523 294.168 257.994C404.999 245.85 541.306 232.581 797.303 246.471L797.358 245.255C541.232 231.358 404.821 244.634 293.921 256.786C289.122 257.312 284.372 257.835 279.661 258.355L279.569 258.365Z" fill="url(#paint5_linear_18_1418)"/>
<path d="M-55.9376 254.621C92.9366 272.783 179.495 263.915 287.239 252.877C290.254 252.568 293.287 252.257 296.337 251.945C408.425 240.489 545.317 227.482 797.665 239.97L797.619 241.209C545.396 228.727 408.605 241.726 296.575 253.177C293.521 253.489 290.486 253.8 287.467 254.109C179.694 265.151 92.9655 274.036 -56.1201 255.848L-55.9376 254.621Z" fill="url(#paint6_linear_18_1418)"/>
<path d="M295.641 247.379C183.877 258.001 95.0305 266.444 -55.6769 247.657L-55.8677 248.905C95.05 267.719 184.066 259.259 295.859 248.635L298.983 248.338C412.211 237.581 549.489 224.851 797.936 235.925L797.974 234.663C549.404 223.584 412.03 236.322 298.755 247.084L295.641 247.379Z" fill="url(#paint7_linear_18_1418)"/>
<path d="M-55.4154 240.668C95.7521 259.921 186.748 252.262 301.173 242.198L304.877 241.872C418.615 231.865 556.126 219.767 798.283 229.333L798.255 230.617C556.221 221.055 418.804 233.146 305.104 243.15L301.392 243.476C186.929 253.543 95.7657 261.217 -55.6148 241.938L-55.4154 240.668Z" fill="url(#paint8_linear_18_1418)"/>
<path d="M303.596 237.287C187.981 246.657 95.0811 253.198 -55.1497 233.655L-55.3578 234.946C95.082 254.516 188.146 247.962 303.805 238.588C307.577 238.283 311.373 237.974 315.196 237.663L315.317 237.653C428.657 228.436 565.62 217.298 798.577 225.284L798.596 223.978C565.524 215.988 428.473 227.133 315.105 236.352C311.242 236.667 307.407 236.978 303.596 237.287Z" fill="url(#paint9_linear_18_1418)"/>
<path d="M-54.8832 226.614C94.4111 246.448 189.215 241.025 306.019 232.349C312.741 231.85 319.536 231.34 326.418 230.823L326.469 230.819C439.195 222.357 575.357 212.136 798.91 218.595L798.901 219.924C575.454 213.468 439.375 223.683 326.668 232.144C319.769 232.661 312.958 233.173 306.219 233.673C189.364 242.353 94.3988 247.787 -55.1002 227.926L-54.8832 226.614Z" fill="url(#paint10_linear_18_1418)"/>
<path d="M308.445 227.379C190.451 235.361 93.7436 239.666 -54.6141 219.541L-54.8404 220.874C93.7178 241.026 190.584 236.712 308.635 228.727C318.697 228.046 328.912 227.339 339.327 226.618L339.356 226.616C451.103 218.879 585.788 209.554 799.228 214.532L799.225 213.18C585.689 208.2 450.925 217.531 339.166 225.268L339.159 225.269C328.736 225.99 318.513 226.698 308.445 227.379Z" fill="url(#paint11_linear_18_1418)"/>
<path d="M-54.3424 212.435C93.0787 232.851 191.69 229.663 310.874 222.376C324.747 221.528 338.899 220.624 353.438 219.695C463.835 212.645 596.595 204.166 799.542 207.732L799.557 209.106C596.698 205.541 464.013 214.015 353.623 221.065C339.083 221.994 324.929 222.898 311.053 223.746C191.806 231.038 93.0392 234.232 -54.5782 213.789L-54.3424 212.435Z" fill="url(#paint12_linear_18_1418)"/>
<path fill-rule="evenodd" clip-rule="evenodd" d="M799.862 202.249L799.89 203.645C608.278 201.416 478.318 209.083 369.771 215.487L369.767 215.487C350.397 216.629 331.709 217.732 313.474 218.731C193.031 225.328 92.3633 227.403 -54.3133 206.669L-54.0702 205.307C-54.1526 205.296 -54.235 205.284 -54.3174 205.272L-54.1957 204.591C-54.2354 204.585 -54.275 204.58 -54.3147 204.574L-54.0691 203.199C92.4155 223.906 192.93 221.836 313.304 215.243C331.533 214.245 350.218 213.142 369.586 212C478.138 205.596 608.169 197.925 799.86 200.155L799.889 201.551C799.883 201.551 799.878 201.551 799.872 201.551L799.886 202.249C799.878 202.249 799.87 202.249 799.862 202.249ZM99.2983 220.165C125.503 221.423 150.743 221.942 175.69 221.909C150.741 221.943 125.502 221.424 99.2983 220.165Z" fill="url(#paint13_linear_18_1418)"/>
<path d="M-53.7984 198.151L-54.0473 199.511C91.6884 220.536 194.257 219.581 315.896 213.677C339.149 212.549 363.097 211.24 388.177 209.869L388.178 209.869C494.281 204.069 620.638 197.161 800.224 198.147L800.183 196.75C800.196 196.75 800.208 196.75 800.22 196.75L800.2 196.052C800.208 196.052 800.215 196.052 800.223 196.052L800.181 194.634C620.524 193.648 494.096 200.559 387.99 206.36L387.982 206.36C362.911 207.731 338.974 209.039 315.737 210.167C194.173 216.066 91.755 217.018 -53.7932 196.02L-54.0487 197.416C-54.0081 197.422 -53.9675 197.428 -53.9268 197.434L-54.0514 198.114C-53.9671 198.127 -53.8828 198.139 -53.7984 198.151Z" fill="url(#paint14_linear_18_1418)"/>
<path d="M800.508 191.209L800.563 192.606C633.923 192.75 512.234 198.95 409.332 204.193C377.452 205.817 347.375 207.349 318.323 208.581C195.487 213.79 91.0174 213.626 -53.7774 192.31L-53.5227 190.952C-53.6089 190.939 -53.6952 190.926 -53.7815 190.914L-53.654 190.234C-53.6956 190.228 -53.7372 190.222 -53.7788 190.215L-53.513 188.798C91.0987 210.087 195.42 210.254 318.174 205.048C347.203 203.817 377.265 202.285 409.136 200.662L409.137 200.662C512.045 195.419 633.804 189.215 800.505 189.07L800.562 190.511C800.552 190.511 800.542 190.511 800.532 190.511L800.559 191.209C800.542 191.209 800.525 191.209 800.508 191.209Z" fill="url(#paint15_linear_18_1418)"/>
<path d="M-53.2423 183.706L-53.503 185.063C90.351 206.67 196.722 207.954 320.753 203.439C356.549 202.136 393.811 200.351 433.866 198.431H433.867C532.601 193.7 648.312 188.155 800.907 187.018L800.839 185.622C800.86 185.622 800.882 185.622 800.903 185.622L800.869 184.924C800.881 184.924 800.894 184.924 800.906 184.923L800.834 183.461C648.191 184.598 532.405 190.146 433.659 194.878L433.658 194.878C393.615 196.797 356.375 198.582 320.615 199.883C196.672 204.395 90.4472 203.11 -53.228 181.53L-53.5044 182.968C-53.4618 182.975 -53.4192 182.981 -53.3766 182.988L-53.5071 183.667C-53.4188 183.68 -53.3306 183.693 -53.2423 183.706Z" fill="url(#paint16_linear_18_1418)"/>
<path d="M801.17 179.986L801.253 181.382C664.026 183.339 555.916 188.278 462.61 192.541C412.62 194.825 366.878 196.915 323.185 198.248C197.958 202.069 89.6855 199.665 -53.2275 177.767L-52.9608 176.412C-53.0511 176.398 -53.1413 176.385 -53.2316 176.371L-53.0981 175.693C-53.1417 175.686 -53.1853 175.679 -53.2289 175.673L-52.9418 174.214C89.797 196.085 197.925 198.487 323.058 194.669C366.689 193.338 412.404 191.25 462.381 188.967C555.714 184.703 663.913 179.76 801.163 177.802L801.252 179.287C801.237 179.287 801.222 179.287 801.207 179.288L801.249 179.985C801.223 179.986 801.196 179.986 801.17 179.986Z" fill="url(#paint17_linear_18_1418)"/>
<path d="M-52.6743 169.064L-52.947 170.417C148.524 201.904 286.011 195.803 496.739 186.451C582.964 182.624 681.453 178.253 801.604 175.691L801.506 174.296C801.537 174.296 801.569 174.295 801.6 174.294L801.551 173.597C801.568 173.597 801.586 173.596 801.603 173.596L801.497 172.089C681.189 174.655 582.631 179.029 496.384 182.857L496.383 182.857C285.779 192.204 148.581 198.293 -52.6502 166.843L-52.9484 168.322C-52.9038 168.329 -52.8592 168.336 -52.8146 168.343L-52.9511 169.02C-52.8589 169.035 -52.7666 169.049 -52.6743 169.064Z" fill="url(#paint18_linear_18_1418)"/>
<path d="M801.846 168.551L801.96 169.944C700.819 172.842 614.549 176.654 537.663 180.051C305.71 190.299 159.163 196.774 -52.6627 163.011L-52.3839 161.659C-52.4782 161.644 -52.5725 161.629 -52.6668 161.614L-52.5273 160.938C-52.5729 160.931 -52.6185 160.923 -52.6641 160.916L-52.3546 159.416C159.22 193.139 305.485 186.677 537.348 176.434C614.256 173.036 700.583 169.222 801.834 166.321L801.959 167.849C801.939 167.85 801.919 167.85 801.899 167.851L801.956 168.547C801.92 168.548 801.883 168.55 801.846 168.551Z" fill="url(#paint19_linear_18_1418)"/>
<path d="M-52.088 154.194L-52.373 155.544C171.891 191.995 329.27 184.86 587.656 173.146C652.067 170.226 722.756 167.021 802.322 164.136L802.192 162.744C802.234 162.743 802.276 162.741 802.318 162.74L802.253 162.044C802.276 162.043 802.298 162.042 802.321 162.041L802.176 160.492C722.548 163.379 651.824 166.585 587.396 169.505L587.393 169.505C329.053 181.216 171.951 188.337 -52.0532 151.928L-52.3744 153.449C-52.3277 153.457 -52.2811 153.464 -52.2344 153.472L-52.3771 154.147C-52.2807 154.163 -52.1844 154.179 -52.088 154.194Z" fill="url(#paint20_linear_18_1418)"/>
<path d="M802.54 156.873L802.687 158.263C748.015 160.678 697.366 163.117 649.923 165.403C357.874 179.472 187.325 187.688 -52.0814 148.012L-51.7903 146.664C-51.8887 146.648 -51.9871 146.632 -52.0855 146.615L-51.9398 145.941C-51.9875 145.933 -52.0351 145.925 -52.0828 145.917L-51.7498 144.376C187.389 184.008 357.669 175.806 649.726 161.738L649.736 161.737C697.178 159.452 747.834 157.012 802.52 154.597L802.685 156.169C802.66 156.17 802.635 156.171 802.609 156.172L802.683 156.867C802.635 156.869 802.588 156.871 802.54 156.873Z" fill="url(#paint21_linear_18_1418)"/>
<path d="M-51.4855 139.066L-51.783 140.411C206.363 184.027 393.259 174.09 729.35 156.221C753.145 154.955 777.689 153.651 803.059 152.322L802.895 150.934C802.948 150.931 803.001 150.928 803.055 150.926L802.973 150.232C803.001 150.23 803.029 150.229 803.057 150.227L802.87 148.635C777.591 149.959 753.133 151.259 729.419 152.52L729.238 152.529C393.068 170.402 206.434 180.325 -51.4391 136.755L-51.7844 138.317C-51.7356 138.325 -51.6869 138.333 -51.6382 138.341L-51.7871 139.015C-51.6866 139.032 -51.586 139.049 -51.4855 139.066Z" fill="url(#paint22_linear_18_1418)"/>
<path d="M803.255 144.924L803.436 146.31C427.271 169.221 223.068 180.027 -51.4802 132.74L-51.1764 131.397C-51.279 131.379 -51.3816 131.361 -51.4843 131.344L-51.3322 130.671C-51.382 130.663 -51.4318 130.654 -51.4815 130.645L-51.1238 129.063C223.104 176.295 427.036 165.514 803.224 142.602L803.435 144.215C803.403 144.217 803.372 144.219 803.341 144.221L803.432 144.914C803.373 144.917 803.314 144.921 803.255 144.924Z" fill="url(#paint23_linear_18_1418)"/>
<path d="M-50.861 123.655L-51.1711 124.996C221.5 172.866 435.184 165.954 803.82 140.225L803.621 138.842C803.686 138.838 803.751 138.833 803.816 138.829L803.717 138.138C803.751 138.135 803.785 138.133 803.819 138.131L803.584 136.497C434.973 162.224 221.548 169.112 -50.8019 121.299L-51.1725 122.902C-51.1216 122.911 -51.0708 122.92 -51.0199 122.928L-51.1752 123.6C-51.0705 123.618 -50.9657 123.637 -50.861 123.655Z" fill="url(#paint24_linear_18_1418)"/>
<path d="M803.991 132.685L804.21 134.064C443.102 162.611 219.934 165.628 -50.8581 117.176L-50.5415 115.837C-50.6484 115.818 -50.7553 115.799 -50.8622 115.78L-50.7037 115.109C-50.7556 115.1 -50.8075 115.091 -50.8595 115.082L-50.4758 113.459C219.998 161.854 442.912 158.856 803.947 130.315L804.208 131.969C804.171 131.972 804.134 131.975 804.096 131.978L804.205 132.668C804.134 132.673 804.063 132.679 803.991 132.685Z" fill="url(#paint25_linear_18_1418)"/>
<path d="M-50.2174 107.943L-50.5405 109.28C218.371 158.314 451.026 159.193 804.604 127.827L804.367 126.451C804.444 126.444 804.522 126.437 804.6 126.43L804.481 125.743C804.522 125.739 804.562 125.736 804.603 125.732L804.313 124.058C450.856 155.413 218.454 154.519 -50.1448 105.543L-50.5419 107.186C-50.4889 107.195 -50.4358 107.205 -50.3828 107.215L-50.5446 107.884C-50.4355 107.904 -50.3264 107.924 -50.2174 107.943Z" fill="url(#paint26_linear_18_1418)"/>
<path d="M804.749 120.143L805.006 121.514C458.957 155.7 216.814 150.924 -50.2167 101.309L-49.887 99.9743C-49.9983 99.9536 -50.1095 99.9329 -50.2208 99.9123L-50.0557 99.2442C-50.1098 99.2341 -50.164 99.2241 -50.2181 99.214L-49.8072 97.5512C216.919 147.11 458.804 151.894 804.686 117.725L805.005 119.419C804.961 119.424 804.917 119.428 804.873 119.432L805.002 120.117C804.918 120.126 804.833 120.134 804.749 120.143Z" fill="url(#paint27_linear_18_1418)"/>
<path d="M-49.5514 91.9312L-49.8877 93.2632C215.261 143.46 466.894 152.133 805.414 115.127L805.135 113.76C805.227 113.75 805.318 113.74 805.41 113.73L805.271 113.048C805.318 113.042 805.365 113.037 805.412 113.032L805.063 111.319C466.757 148.301 215.389 139.627 -49.4642 89.4858L-49.8891 91.1685C-49.8339 91.179 -49.7786 91.1895 -49.7234 91.1999L-49.8918 91.8668C-49.7783 91.8883 -49.6649 91.9097 -49.5514 91.9312Z" fill="url(#paint28_linear_18_1418)"/>
<path d="M805.527 107.306L805.827 108.667C474.837 148.493 213.711 135.923 -49.5543 85.145L-49.2112 83.8156C-49.3269 83.7932 -49.4426 83.7709 -49.5584 83.7486L-49.3866 83.083C-49.4429 83.0721 -49.4993 83.0613 -49.5556 83.0504L-49.1163 81.3478C213.866 132.071 474.713 144.635 805.444 104.84L805.826 106.572C805.775 106.578 805.724 106.585 805.673 106.591L805.823 107.27C805.725 107.282 805.626 107.294 805.527 107.306Z" fill="url(#paint29_linear_18_1418)"/>
<path d="M-48.865 75.6295L-49.2147 76.9564C212.166 128.315 482.788 144.784 806.248 102.136L805.926 100.782C806.032 100.768 806.138 100.754 806.244 100.74L806.083 100.063C806.138 100.056 806.192 100.049 806.247 100.042L805.83 98.2914C482.675 140.899 212.35 124.445 -48.7621 73.1394L-49.2161 74.8618C-49.1586 74.8731 -49.1012 74.8844 -49.0437 74.8957L-49.2188 75.56C-49.1009 75.5832 -48.9829 75.6064 -48.865 75.6295Z" fill="url(#paint30_linear_18_1418)"/>
<path d="M806.328 94.1926L806.673 95.5399C490.742 141.009 210.623 120.642 -48.8716 68.7023L-48.515 67.3781C-48.6353 67.354 -48.7555 67.33 -48.8757 67.3059L-48.6972 66.6429C-48.7558 66.6311 -48.8144 66.6194 -48.873 66.6077L-48.4039 64.8656C210.839 116.755 490.64 137.096 806.219 91.6775L806.672 93.4453C806.614 93.4537 806.555 93.4621 806.497 93.4705L806.669 94.1436C806.556 94.1599 806.442 94.1763 806.328 94.1926Z" fill="url(#paint31_linear_18_1418)"/>
<path d="M-48.1604 59.0625L-48.5239 60.3839C209.084 112.904 498.703 137.171 807.105 88.8791L806.736 87.5397C806.857 87.5207 806.979 87.5017 807.1 87.4827L806.916 86.8137C806.979 86.804 807.041 86.7942 807.103 86.7845L806.612 84.9997C498.609 133.229 209.334 109 -48.0407 56.5277L-48.5253 58.2893C-48.4655 58.3015 -48.4057 58.3137 -48.346 58.3259L-48.528 58.9875C-48.4055 59.0125 -48.283 59.0375 -48.1604 59.0625Z" fill="url(#paint32_linear_18_1418)"/>
<path d="M807.148 80.8284L807.541 82.1588C506.668 133.274 207.549 105.107 -48.1719 52.0065L-47.8015 50.6879C-47.9263 50.662 -48.0512 50.6361 -48.176 50.6102L-47.9905 49.9498C-48.0514 49.9372 -48.1123 49.9246 -48.1732 49.9119L-47.673 48.1308C207.835 101.187 506.581 129.302 807.008 78.2633L807.54 80.0642C807.474 80.0755 807.407 80.0867 807.341 80.098L807.537 80.7624C807.408 80.7844 807.278 80.8064 807.148 80.8284Z" fill="url(#paint33_linear_18_1418)"/>
<path d="M-47.4383 42.2584L-47.8157 43.5741C206.016 97.254 514.639 129.322 807.983 75.3831L807.566 74.0627C807.703 74.0374 807.841 74.0121 807.979 73.9868L807.771 73.3274C807.841 73.3144 807.911 73.3015 807.982 73.2885L807.408 71.4724C514.557 125.321 206.341 93.3188 -47.3007 39.6791L-47.8171 41.4795C-47.755 41.4926 -47.6929 41.5057 -47.6308 41.5189L-47.8198 42.1777C-47.6926 42.2046 -47.5655 42.2315 -47.4383 42.2584Z" fill="url(#paint34_linear_18_1418)"/>
<path d="M807.987 67.2481L808.43 68.5574C522.614 125.321 204.486 89.3515 -47.4561 35.0919L-47.0717 33.7792C-47.2012 33.7513 -47.3307 33.7235 -47.4602 33.6956L-47.2677 33.0382C-47.331 33.0246 -47.3942 33.011 -47.4575 32.9973L-46.9246 31.1777C204.852 85.4016 522.536 121.289 807.81 64.6323L808.429 66.4628C808.354 66.4776 808.28 66.4924 808.205 66.5072L808.426 67.161C808.28 67.1901 808.134 67.2191 807.987 67.2481Z" fill="url(#paint35_linear_18_1418)"/>
<path d="M-46.7031 25.2517L-47.0946 26.5614C202.957 81.4001 530.592 121.273 808.88 61.6827L808.411 60.3857C808.566 60.3526 808.721 60.3195 808.876 60.2863L808.642 59.6388C808.721 59.6219 808.8 59.605 808.879 59.5881L808.212 57.7443C530.516 117.208 203.367 77.4364 -46.5463 22.628L-47.096 24.4668C-47.0315 24.4809 -46.9671 24.4951 -46.9026 24.5092L-47.0987 25.165C-46.9668 25.1939 -46.835 25.2228 -46.7031 25.2517Z" fill="url(#paint36_linear_18_1418)"/>
<path d="M808.841 53.4818L809.336 54.765C538.575 117.182 201.431 73.4059 -46.7286 17.9883L-46.33 16.6819C-46.4643 16.6519 -46.5985 16.6219 -46.7327 16.592L-46.5331 15.9377C-46.5987 15.923 -46.6644 15.9084 -46.73 15.8937L-46.1631 14.0359C201.887 69.4291 538.5 113.084 808.618 50.8145L809.335 52.6704C809.251 52.6896 809.168 52.7088 809.085 52.728L809.332 53.3686C809.168 53.4063 809.004 53.4441 808.841 53.4818Z" fill="url(#paint37_linear_18_1418)"/>
<path d="M-45.9547 8.07227L-46.3606 9.37547C199.906 65.3716 546.562 113.053 809.796 47.8069L809.273 46.5388C809.446 46.4961 809.619 46.4533 809.792 46.4105L809.531 45.7775C809.619 45.7558 809.707 45.734 809.795 45.7122L809.025 43.8457C546.486 108.92 200.411 61.3826 -45.7775 5.40424L-46.362 7.28087C-46.2951 7.29606 -46.2283 7.31127 -46.1614 7.32646L-46.3647 7.9791C-46.2281 8.01016 -46.0914 8.04121 -45.9547 8.07227Z" fill="url(#paint38_linear_18_1418)"/>
<path d="M809.71 39.5604L810.26 40.8117C682.373 74.8584 529.389 78.9686 377.884 67.5127C226.365 56.0557 76.2364 29.0226 -45.99 0.726204L-45.5768 -0.573601C-45.7159 -0.605774 -45.855 -0.63797 -45.9941 -0.670166L-45.7871 -1.32114C-45.8552 -1.33688 -45.9233 -1.35265 -45.9913 -1.36839L-45.3889 -3.26375C76.7349 25.0089 226.708 52.0117 378.035 63.4542C529.377 74.8977 681.987 70.771 809.434 36.8413L810.259 38.7171C810.166 38.7417 810.074 38.7663 809.981 38.7908L810.256 39.4153C810.074 39.4637 809.892 39.5121 809.71 39.5604Z" fill="url(#paint39_linear_18_1418)"/>
<path d="M-45.4117 -10.0033L-45.6223 -9.35407C-45.4808 -9.32072 -45.3393 -9.28738 -45.1977 -9.25404L-45.6182 -7.9577C75.6692 20.6298 227.701 48.7823 380.415 60.9339C533.109 73.0838 686.595 69.2463 810.726 33.7811L810.149 32.5483C810.34 32.4938 810.531 32.4393 810.722 32.3847L810.434 31.7695C810.531 31.7419 810.628 31.7142 810.725 31.6865L809.842 29.8031C686.192 65.1308 533.118 68.9917 380.579 56.8542C228.061 44.7182 76.1867 16.5972 -44.9987 -11.9663L-45.6195 -10.0523C-45.5503 -10.036 -45.481 -10.0196 -45.4117 -10.0033Z" fill="url(#paint40_linear_18_1418)"/>
<path d="M810.593 25.5074L811.199 26.7199C690.822 63.605 536.833 67.1693 382.95 54.3253C229.041 41.4793 75.1064 12.2072 -45.2421 -16.6714L-44.8143 -17.9641C-44.9583 -17.9986 -45.1023 -18.0332 -45.2462 -18.0677L-45.0319 -18.7152C-45.1025 -18.7321 -45.173 -18.749 -45.2435 -18.766L-44.604 -20.6984C75.6429 8.15585 229.418 37.3951 383.128 50.2246C536.864 63.0563 690.402 59.4606 810.254 22.7361L811.198 24.6253C811.096 24.6564 810.994 24.6875 810.893 24.7186L811.195 25.3235C810.994 25.3849 810.794 25.4462 810.593 25.5074Z" fill="url(#paint41_linear_18_1418)"/>
<path d="M-44.4316 -26.701C-44.5781 -26.7368 -44.7245 -26.7725 -44.8709 -26.8083L-44.6529 -27.454L-44.8682 -27.5065L-44.2095 -29.4572C75.0986 -0.312317 230.775 30.0451 385.677 43.5682C540.611 57.0941 694.61 53.763 810.663 15.6434L811.671 17.5363L811.353 17.6405L811.668 18.2345C811.458 18.3034 811.249 18.3721 811.039 18.4408L811.672 19.6309C695.05 57.9373 540.554 61.2277 385.484 47.69C230.381 34.1493 74.543 3.75784 -44.8669 -25.4119L-44.4316 -26.701Z" fill="url(#paint42_linear_18_1418)"/>
<path d="M-44.2711 -36.2188L-44.4901 -36.2732L-43.8119 -38.2421C74.5574 -8.80654 232.135 22.6691 388.228 36.8857C544.362 51.1061 698.82 48.0388 811.074 8.52561L812.149 10.42C812.038 10.459 811.927 10.498 811.816 10.5369L812.146 11.1183C811.927 11.1953 811.708 11.2722 811.489 11.349L812.15 12.5146C699.281 52.2442 544.277 55.2599 388.022 41.0285C231.724 26.7933 73.9827 -4.71767 -44.4888 -34.1786L-44.046 -35.4639C-44.195 -35.501 -44.344 -35.538 -44.4928 -35.575L-44.2711 -36.2188Z" fill="url(#paint43_linear_18_1418)"/>
<path d="M-43.6599 -44.2515C-43.8115 -44.2899 -43.9629 -44.3282 -44.1143 -44.3665L-43.8888 -45.0084L-44.1116 -45.0647L-43.4134 -47.0516C74.0168 -17.3254 233.496 15.2685 390.78 30.1785C548.116 45.0936 703.03 42.2892 811.484 1.38442L812.629 3.27787C812.513 3.32137 812.398 3.36479 812.283 3.4082L812.626 3.9761C812.398 4.06208 812.17 4.14787 811.942 4.23351L812.63 5.37247C703.514 46.5269 548 49.2672 390.56 34.3423C233.068 19.4125 73.423 -13.2179 -44.1102 -42.9701L-43.6599 -44.2515Z" fill="url(#paint44_linear_18_1418)"/>
<path d="M-43.2696 -53.0585L-43.7274 -51.7811C72.8677 -21.7375 234.416 12.0123 393.102 27.6367C551.725 43.2548 707.752 40.791 813.116 -1.79043L812.401 -2.90033C812.638 -2.99562 812.875 -3.0911 813.112 -3.1868L812.756 -3.74007C812.875 -3.78833 812.995 -3.83666 813.115 -3.88503L811.897 -5.7748C707.243 36.5196 551.875 39.0619 393.336 23.4521C234.861 7.84846 73.4806 -25.8637 -43.0102 -55.8803L-43.7288 -53.8757L-43.5022 -53.8173L-43.7315 -53.1775C-43.5776 -53.1378 -43.4236 -53.0981 -43.2696 -53.0585Z" fill="url(#paint45_linear_18_1418)"/>
<path d="M-42.8803 -61.8871C-43.0369 -61.9282 -43.1934 -61.9692 -43.3499 -62.0103L-43.1167 -62.6481L-43.3472 -62.7085L-42.6078 -64.7308C72.9436 -34.4236 236.225 0.406731 395.892 16.7038C555.635 33.0087 711.454 30.7275 812.307 -12.9543L813.602 -11.0712C813.478 -11.0175 813.354 -10.9639 813.23 -10.9103L813.599 -10.373C813.354 -10.2667 813.108 -10.1607 812.862 -10.0549L813.603 -8.97658C711.99 35.0341 555.448 37.2205 395.644 20.9093C235.763 4.59038 72.3115 -30.2789 -43.3458 -60.6139L-42.8803 -61.8871Z" fill="url(#paint46_linear_18_1418)"/>
<path d="M-42.4886 -70.7326L-42.9618 -69.4636C71.7578 -38.8372 237.113 -2.84843 398.188 14.1651C478.726 22.6719 558.227 26.4385 629.812 22.4093C701.383 18.3809 765.131 6.55483 814.094 -16.1811L813.328 -17.2253C813.582 -17.3424 813.836 -17.4598 814.09 -17.5775L813.708 -18.0977C813.836 -18.157 813.964 -18.2163 814.092 -18.2757L812.719 -20.1489C764.225 2.36961 700.912 14.1531 629.546 18.17C558.192 22.1862 478.878 18.4341 398.45 9.93884C237.592 -7.05178 72.4091 -43.0004 -42.2025 -73.598L-42.9632 -71.5582L-42.7289 -71.4956L-42.9659 -70.8599C-42.8069 -70.8175 -42.6478 -70.775 -42.4886 -70.7326Z" fill="url(#paint47_linear_18_1418)"/>
<path d="M-42.0971 -79.5941C-42.2589 -79.638 -42.4206 -79.682 -42.5822 -79.7259L-42.3412 -80.3594L-42.5794 -80.4241L-41.7971 -82.4812C71.8746 -51.5933 238.958 -14.5264 401.008 3.15769C482.033 11.9997 561.762 15.9919 632.908 11.9541C704.07 7.91538 766.54 -4.15156 813.129 -27.3579L814.585 -25.4983C814.453 -25.4327 814.321 -25.3672 814.189 -25.3017L814.582 -24.8C814.321 -24.67 814.059 -24.5404 813.797 -24.411L814.586 -23.4037C767.495 0.0527573 704.55 12.1649 633.179 16.2155C561.791 20.267 481.867 16.2588 400.732 7.40471C238.463 -10.3034 71.2042 -47.4116 -42.5781 -78.3295L-42.0971 -79.5941Z" fill="url(#paint48_linear_18_1418)"/>
<path d="M-41.704 -88.4722L-42.1928 -87.2121C70.6523 -56.0025 239.814 -17.7749 403.278 0.627739C485.009 9.82906 565.356 14.0789 636.547 10.005C707.718 5.9323 769.862 -6.46587 815.081 -30.6447L814.272 -31.6126C814.541 -31.755 814.809 -31.8978 815.077 -32.041L814.674 -32.5229C814.81 -32.5949 814.945 -32.667 815.08 -32.7393L813.539 -34.5816C768.855 -10.6893 707.231 1.66111 636.272 5.72166C565.333 9.78109 485.189 5.54887 403.568 -3.63998C240.327 -22.0176 71.3419 -60.2027 -41.3897 -91.3809L-42.1941 -89.3067L-41.952 -89.2398L-42.1969 -88.6084C-42.0327 -88.5631 -41.8684 -88.5176 -41.704 -88.4722Z" fill="url(#paint49_linear_18_1418)"/>
<path d="M-41.3121 -97.3639C-41.4791 -97.4109 -41.646 -97.4579 -41.8127 -97.5048L-41.5639 -98.1338L-41.81 -98.203L-40.9829 -100.294C70.8083 -68.8258 241.694 -29.5225 406.127 -10.4513C488.344 -0.91568 568.904 3.55656 639.636 -0.524483C710.391 -4.60689 771.168 -17.2408 813.947 -41.8169L815.576 -39.996C815.438 -39.9167 815.3 -39.8375 815.161 -39.7584L815.573 -39.2978C815.299 -39.1404 815.025 -38.9835 814.749 -38.8271L815.577 -37.9014C772.229 -12.9981 710.885 -0.313911 639.915 3.7809C568.921 7.87707 488.151 3.38563 405.823 -6.16293C241.165 -25.2601 70.0994 -64.6072 -41.8086 -96.1084L-41.3121 -97.3639Z" fill="url(#paint50_linear_18_1418)"/>
<path d="M816.077 -47.2692C815.936 -47.1823 815.796 -47.0956 815.655 -47.009L816.074 -46.571C815.795 -46.3985 815.515 -46.2267 815.235 -46.0554L816.078 -45.1746C774.601 -19.5445 714.055 -6.5743 643.286 -2.45744C572.489 1.66109 491.296 -3.07206 408.371 -12.9678C242.519 -32.7596 69.5503 -73.2261 -41.421 -105.019L-40.9165 -106.27C-41.0862 -106.318 -41.2557 -106.367 -41.4251 -106.415L-41.1723 -107.042L-41.4223 -107.114L-40.5723 -109.222C70.2784 -77.4632 243.065 -37.0415 408.69 -17.2768C491.503 -7.39438 572.478 -2.68218 643.002 -6.78483C713.555 -10.8891 773.483 -23.8065 814.358 -49.0641L816.077 -47.2692Z" fill="url(#paint51_linear_18_1418)"/>
<path d="M254.562 278.127C162.611 291.448 85.4453 302.627 -57.22 287.055L-57.3645 288.175C-57.3357 288.178 -57.307 288.181 -57.2783 288.184L-57.3672 288.873C85.5183 304.47 162.863 293.264 254.844 279.938C264.551 278.532 274.421 277.102 284.547 275.677C390.587 260.761 524.951 246.415 796.053 265.937L796.134 264.811C796.118 264.81 796.102 264.808 796.087 264.807L796.137 264.112C524.905 244.581 390.419 258.934 284.27 273.865C274.14 275.29 264.268 276.72 254.562 278.127Z" fill="url(#paint52_linear_18_1418)"/>
<path d="M-56.9676 280.184C86.6148 296.216 165.44 285.52 260.097 272.676L260.123 272.673C268.821 271.492 277.652 270.294 286.68 269.097C394.017 254.86 528.983 240.777 796.439 258.899L796.394 259.595C796.408 259.596 796.422 259.597 796.436 259.598L796.361 260.746C529.036 242.632 394.186 256.709 286.949 270.932C277.92 272.13 269.086 273.329 260.384 274.509L260.368 274.512C165.681 287.36 86.6786 298.08 -57.122 282.023L-57.0305 281.335C-57.0601 281.332 -57.0897 281.328 -57.1192 281.325L-56.9676 280.184Z" fill="url(#paint53_linear_18_1418)"/>
<path d="M266.07 267.217C168.511 279.593 87.9312 289.815 -56.7126 273.297L-56.8717 274.46C-56.8412 274.463 -56.8108 274.467 -56.7803 274.47L-56.8744 275.158C87.9859 291.701 168.742 281.456 266.33 269.076L266.332 269.076C273.892 268.117 281.553 267.145 289.353 266.172C397.788 252.642 533.123 238.834 796.672 255.54L796.741 254.369C796.728 254.368 796.715 254.368 796.703 254.367L796.744 253.671C533.064 236.957 397.616 250.771 289.091 264.313C281.291 265.286 273.629 266.258 266.07 267.217Z" fill="url(#paint54_linear_18_1418)"/>
<path d="M-56.4567 266.394C89.4096 283.426 171.853 273.667 272.538 261.749L272.542 261.749C278.786 261.009 285.1 260.262 291.504 259.512C401.217 246.666 537.146 233.12 797.049 248.426L797.013 249.122C797.024 249.123 797.035 249.123 797.046 249.124L796.984 250.318C537.211 235.02 401.39 248.558 291.757 261.395C285.369 262.143 279.069 262.889 272.839 263.626L272.786 263.633C172.072 275.554 89.4549 285.334 -56.6261 268.276L-56.5294 267.589C-56.5607 267.585 -56.5921 267.582 -56.6234 267.578L-56.4567 266.394Z" fill="url(#paint55_linear_18_1418)"/>
<path d="M279.568 256.27C175.502 267.742 91.0712 277.049 -56.1979 259.47L-56.3724 260.676C-56.3402 260.68 -56.308 260.683 -56.2758 260.687L-56.3751 261.374C91.1069 278.978 175.71 269.652 279.805 258.177C284.548 257.654 289.332 257.127 294.164 256.598C404.995 244.454 541.301 231.185 797.299 245.075L797.354 243.859C797.344 243.858 797.335 243.858 797.325 243.857L797.357 243.16C541.231 229.263 404.82 242.54 293.92 254.691C289.121 255.217 284.37 255.741 279.66 256.26L279.568 256.27Z" fill="url(#paint56_linear_18_1418)"/>
<path d="M-55.9389 252.527C92.9352 270.689 179.493 261.821 287.237 250.782C290.253 250.473 293.285 250.163 296.336 249.851C408.423 238.394 545.316 225.387 797.664 237.875L797.638 238.572C797.646 238.573 797.653 238.573 797.661 238.573L797.615 239.812C545.392 227.33 408.6 240.33 296.571 251.78C293.517 252.093 290.482 252.404 287.463 252.713C179.69 263.754 92.9614 272.64 -56.1242 254.452L-56.0221 253.766C-56.0552 253.762 -56.0884 253.758 -56.1215 253.754L-55.9389 252.527Z" fill="url(#paint57_linear_18_1418)"/>
<path d="M295.64 245.285C183.876 255.906 95.0292 264.349 -55.6783 245.562L-55.8691 246.811C-55.8351 246.815 -55.8011 246.819 -55.7671 246.823L-55.8718 247.509C95.0459 266.322 184.062 257.863 295.855 247.239L298.979 246.942C412.207 236.185 549.484 223.454 797.932 234.529L797.97 233.267C797.964 233.267 797.958 233.267 797.952 233.266L797.973 232.569C549.402 221.489 412.028 234.227 298.753 244.989L295.64 245.285Z" fill="url(#paint58_linear_18_1418)"/>
<path d="M-55.4168 238.574C95.7507 257.826 186.746 250.167 301.172 240.104L304.876 239.778C418.614 229.771 556.124 217.672 798.282 227.239L798.266 227.937C798.271 227.937 798.275 227.937 798.279 227.937L798.251 229.221C556.217 219.659 418.8 231.75 305.1 241.753L301.388 242.08C186.925 252.147 95.7616 259.821 -55.6189 240.542L-55.5113 239.857C-55.5463 239.852 -55.5812 239.848 -55.6161 239.844L-55.4168 238.574Z" fill="url(#paint59_linear_18_1418)"/>
<path d="M303.595 235.193C187.979 244.562 95.0798 251.103 -55.151 231.56L-55.3591 232.851C-55.3233 232.856 -55.2874 232.86 -55.2516 232.865L-55.3618 233.549C95.0779 253.12 188.142 246.565 303.801 237.192C307.573 236.886 311.369 236.578 315.191 236.267L315.313 236.257C428.653 227.04 565.616 215.902 798.573 223.888L798.592 222.581C798.59 222.581 798.587 222.581 798.585 222.581L798.595 221.883C565.523 213.893 428.472 225.038 315.104 234.258C311.241 234.572 307.405 234.884 303.595 235.193Z" fill="url(#paint60_linear_18_1418)"/>
<path d="M-54.8845 224.519C94.4097 244.353 189.213 238.93 306.018 230.254C312.74 229.755 319.534 229.245 326.416 228.729L326.467 228.725C439.194 220.263 575.355 210.042 798.908 216.5L798.904 217.198C798.904 217.198 798.905 217.198 798.905 217.198L798.897 218.527C575.45 212.072 439.371 222.287 326.664 230.747C319.765 231.265 312.954 231.776 306.215 232.277C189.36 240.956 94.3947 246.391 -55.1043 226.529L-54.9912 225.846C-55.028 225.841 -55.0648 225.836 -55.1016 225.831L-54.8845 224.519Z" fill="url(#paint61_linear_18_1418)"/>
<path d="M308.444 225.285C190.449 233.266 93.7422 237.571 -54.6154 217.446L-54.8417 218.78C-54.804 218.785 -54.7663 218.79 -54.7286 218.795L-54.8445 219.478C93.7137 239.63 190.579 235.316 308.631 227.33C318.692 226.65 328.908 225.942 339.323 225.221L339.352 225.219C451.099 217.482 585.784 208.157 799.224 213.135L799.222 212.437C799.224 212.437 799.225 212.437 799.227 212.437L799.223 211.086C585.687 206.105 450.924 215.436 339.165 223.174L339.158 223.174C328.735 223.896 318.512 224.604 308.444 225.285Z" fill="url(#paint62_linear_18_1418)"/>
<path d="M-54.3438 210.34C93.0773 230.756 191.688 227.569 310.872 220.281C324.746 219.433 338.897 218.529 353.437 217.601C463.834 210.55 596.594 202.071 799.541 205.638L799.556 207.012C799.553 207.012 799.549 207.011 799.546 207.011L799.553 207.71C596.694 204.145 464.009 212.619 353.619 219.669C339.079 220.598 324.925 221.501 311.049 222.35C191.802 229.641 93.0351 232.836 -54.5823 212.393L-54.4636 211.711C-54.5022 211.705 -54.5409 211.7 -54.5796 211.694L-54.3438 210.34Z" fill="url(#paint63_linear_18_1418)"/>
</g>
<defs>
<linearGradient id="paint0_linear_18_1418" x1="384.305" y1="-19.0882" x2="366.489" y2="228.322" gradientUnits="userSpaceOnUse">
<stop stop-color="#ADFF00"/>
<stop offset="0.338542" stop-color="#01FF67"/>
<stop offset="0.677083" stop-color="#00FF8F"/>
<stop offset="1" stop-color="#00F0FF"/>
</linearGradient>
<linearGradient id="paint1_linear_18_1418" x1="384.305" y1="-19.0882" x2="366.489" y2="228.322" gradientUnits="userSpaceOnUse">
<stop stop-color="#ADFF00"/>
<stop offset="0.338542" stop-color="#01FF67"/>
<stop offset="0.677083" stop-color="#00FF8F"/>
<stop offset="1" stop-color="#00F0FF"/>
</linearGradient>
<linearGradient id="paint2_linear_18_1418" x1="384.305" y1="-19.0882" x2="366.489" y2="228.322" gradientUnits="userSpaceOnUse">
<stop stop-color="#ADFF00"/>
<stop offset="0.338542" stop-color="#01FF67"/>
<stop offset="0.677083" stop-color="#00FF8F"/>
<stop offset="1" stop-color="#00F0FF"/>
</linearGradient>
<linearGradient id="paint3_linear_18_1418" x1="384.305" y1="-19.0882" x2="366.489" y2="228.322" gradientUnits="userSpaceOnUse">
<stop stop-color="#ADFF00"/>
<stop offset="0.338542" stop-color="#01FF67"/>
<stop offset="0.677083" stop-color="#00FF8F"/>
<stop offset="1" stop-color="#00F0FF"/>
</linearGradient>
<linearGradient id="paint4_linear_18_1418" x1="384.305" y1="-19.0882" x2="366.489" y2="228.322" gradientUnits="userSpaceOnUse">
<stop stop-color="#ADFF00"/>
<stop offset="0.338542" stop-color="#01FF67"/>
<stop offset="0.677083" stop-color="#00FF8F"/>
<stop offset="1" stop-color="#00F0FF"/>
</linearGradient>
<linearGradient id="paint5_linear_18_1418" x1="384.305" y1="-19.0882" x2="366.489" y2="228.322" gradientUnits="userSpaceOnUse">
<stop stop-color="#ADFF00"/>
<stop offset="0.338542" stop-color="#01FF67"/>
<stop offset="0.677083" stop-color="#00FF8F"/>
<stop offset="1" stop-color="#00F0FF"/>
</linearGradient>
<linearGradient id="paint6_linear_18_1418" x1="384.305" y1="-19.0882" x2="366.489" y2="228.322" gradientUnits="userSpaceOnUse">
<stop stop-color="#ADFF00"/>
<stop offset="0.338542" stop-color="#01FF67"/>
<stop offset="0.677083" stop-color="#00FF8F"/>
<stop offset="1" stop-color="#00F0FF"/>
</linearGradient>
<linearGradient id="paint7_linear_18_1418" x1="384.305" y1="-19.0882" x2="366.489" y2="228.322" gradientUnits="userSpaceOnUse">
<stop stop-color="#ADFF00"/>
<stop offset="0.338542" stop-color="#01FF67"/>
<stop offset="0.677083" stop-color="#00FF8F"/>
<stop offset="1" stop-color="#00F0FF"/>
</linearGradient>
<linearGradient id="paint8_linear_18_1418" x1="384.305" y1="-19.0882" x2="366.489" y2="228.322" gradientUnits="userSpaceOnUse">
<stop stop-color="#ADFF00"/>
<stop offset="0.338542" stop-color="#01FF67"/>
<stop offset="0.677083" stop-color="#00FF8F"/>
<stop offset="1" stop-color="#00F0FF"/>
</linearGradient>
<linearGradient id="paint9_linear_18_1418" x1="384.305" y1="-19.0882" x2="366.489" y2="228.322" gradientUnits="userSpaceOnUse">
<stop stop-color="#ADFF00"/>
<stop offset="0.338542" stop-color="#01FF67"/>
<stop offset="0.677083" stop-color="#00FF8F"/>
<stop offset="1" stop-color="#00F0FF"/>
</linearGradient>
<linearGradient id="paint10_linear_18_1418" x1="384.305" y1="-19.0882" x2="366.489" y2="228.322" gradientUnits="userSpaceOnUse">
<stop stop-color="#ADFF00"/>
<stop offset="0.338542" stop-color="#01FF67"/>
<stop offset="0.677083" stop-color="#00FF8F"/>
<stop offset="1" stop-color="#00F0FF"/>
</linearGradient>
<linearGradient id="paint11_linear_18_1418" x1="384.305" y1="-19.0882" x2="366.489" y2="228.322" gradientUnits="userSpaceOnUse">
<stop stop-color="#ADFF00"/>
<stop offset="0.338542" stop-color="#01FF67"/>
<stop offset="0.677083" stop-color="#00FF8F"/>
<stop offset="1" stop-color="#00F0FF"/>
</linearGradient>
<linearGradient id="paint12_linear_18_1418" x1="384.305" y1="-19.0882" x2="366.489" y2="228.322" gradientUnits="userSpaceOnUse">
<stop stop-color="#ADFF00"/>
<stop offset="0.338542" stop-color="#01FF67"/>
<stop offset="0.677083" stop-color="#00FF8F"/>
<stop offset="1" stop-color="#00F0FF"/>
</linearGradient>
<linearGradient id="paint13_linear_18_1418" x1="384.305" y1="-19.0882" x2="366.489" y2="228.322" gradientUnits="userSpaceOnUse">
<stop stop-color="#ADFF00"/>
<stop offset="0.338542" stop-color="#01FF67"/>
<stop offset="0.677083" stop-color="#00FF8F"/>
<stop offset="1" stop-color="#00F0FF"/>
</linearGradient>
<linearGradient id="paint14_linear_18_1418" x1="384.305" y1="-19.0882" x2="366.489" y2="228.322" gradientUnits="userSpaceOnUse">
<stop stop-color="#ADFF00"/>
<stop offset="0.338542" stop-color="#01FF67"/>
<stop offset="0.677083" stop-color="#00FF8F"/>
<stop offset="1" stop-color="#00F0FF"/>
</linearGradient>
<linearGradient id="paint15_linear_18_1418" x1="384.305" y1="-19.0882" x2="366.489" y2="228.322" gradientUnits="userSpaceOnUse">
<stop stop-color="#ADFF00"/>
<stop offset="0.338542" stop-color="#01FF67"/>
<stop offset="0.677083" stop-color="#00FF8F"/>
<stop offset="1" stop-color="#00F0FF"/>
</linearGradient>
<linearGradient id="paint16_linear_18_1418" x1="384.305" y1="-19.0882" x2="366.489" y2="228.322" gradientUnits="userSpaceOnUse">
<stop stop-color="#ADFF00"/>
<stop offset="0.338542" stop-color="#01FF67"/>
<stop offset="0.677083" stop-color="#00FF8F"/>
<stop offset="1" stop-color="#00F0FF"/>
</linearGradient>
<linearGradient id="paint17_linear_18_1418" x1="384.305" y1="-19.0882" x2="366.489" y2="228.322" gradientUnits="userSpaceOnUse">
<stop stop-color="#ADFF00"/>
<stop offset="0.338542" stop-color="#01FF67"/>
<stop offset="0.677083" stop-color="#00FF8F"/>
<stop offset="1" stop-color="#00F0FF"/>
</linearGradient>
<linearGradient id="paint18_linear_18_1418" x1="384.305" y1="-19.0882" x2="366.489" y2="228.322" gradientUnits="userSpaceOnUse">
<stop stop-color="#ADFF00"/>
<stop offset="0.338542" stop-color="#01FF67"/>
<stop offset="0.677083" stop-color="#00FF8F"/>
<stop offset="1" stop-color="#00F0FF"/>
</linearGradient>
<linearGradient id="paint19_linear_18_1418" x1="384.305" y1="-19.0882" x2="366.489" y2="228.322" gradientUnits="userSpaceOnUse">
<stop stop-color="#ADFF00"/>
<stop offset="0.338542" stop-color="#01FF67"/>
<stop offset="0.677083" stop-color="#00FF8F"/>
<stop offset="1" stop-color="#00F0FF"/>
</linearGradient>
<linearGradient id="paint20_linear_18_1418" x1="384.305" y1="-19.0882" x2="366.489" y2="228.322" gradientUnits="userSpaceOnUse">
<stop stop-color="#ADFF00"/>
<stop offset="0.338542" stop-color="#01FF67"/>
<stop offset="0.677083" stop-color="#00FF8F"/>
<stop offset="1" stop-color="#00F0FF"/>
</linearGradient>
<linearGradient id="paint21_linear_18_1418" x1="384.305" y1="-19.0882" x2="366.489" y2="228.322" gradientUnits="userSpaceOnUse">
<stop stop-color="#ADFF00"/>
<stop offset="0.338542" stop-color="#01FF67"/>
<stop offset="0.677083" stop-color="#00FF8F"/>
<stop offset="1" stop-color="#00F0FF"/>
</linearGradient>
<linearGradient id="paint22_linear_18_1418" x1="384.305" y1="-19.0882" x2="366.489" y2="228.322" gradientUnits="userSpaceOnUse">
<stop stop-color="#ADFF00"/>
<stop offset="0.338542" stop-color="#01FF67"/>
<stop offset="0.677083" stop-color="#00FF8F"/>
<stop offset="1" stop-color="#00F0FF"/>
</linearGradient>
<linearGradient id="paint23_linear_18_1418" x1="384.305" y1="-19.0882" x2="366.489" y2="228.322" gradientUnits="userSpaceOnUse">
<stop stop-color="#ADFF00"/>
<stop offset="0.338542" stop-color="#01FF67"/>
<stop offset="0.677083" stop-color="#00FF8F"/>
<stop offset="1" stop-color="#00F0FF"/>
</linearGradient>
<linearGradient id="paint24_linear_18_1418" x1="384.305" y1="-19.0882" x2="366.489" y2="228.322" gradientUnits="userSpaceOnUse">
<stop stop-color="#ADFF00"/>
<stop offset="0.338542" stop-color="#01FF67"/>
<stop offset="0.677083" stop-color="#00FF8F"/>
<stop offset="1" stop-color="#00F0FF"/>
</linearGradient>
<linearGradient id="paint25_linear_18_1418" x1="384.305" y1="-19.0882" x2="366.489" y2="228.322" gradientUnits="userSpaceOnUse">
<stop stop-color="#ADFF00"/>
<stop offset="0.338542" stop-color="#01FF67"/>
<stop offset="0.677083" stop-color="#00FF8F"/>
<stop offset="1" stop-color="#00F0FF"/>
</linearGradient>
<linearGradient id="paint26_linear_18_1418" x1="384.305" y1="-19.0882" x2="366.489" y2="228.322" gradientUnits="userSpaceOnUse">
<stop stop-color="#ADFF00"/>
<stop offset="0.338542" stop-color="#01FF67"/>
<stop offset="0.677083" stop-color="#00FF8F"/>
<stop offset="1" stop-color="#00F0FF"/>
</linearGradient>
<linearGradient id="paint27_linear_18_1418" x1="384.305" y1="-19.0882" x2="366.489" y2="228.322" gradientUnits="userSpaceOnUse">
<stop stop-color="#ADFF00"/>
<stop offset="0.338542" stop-color="#01FF67"/>
<stop offset="0.677083" stop-color="#00FF8F"/>
<stop offset="1" stop-color="#00F0FF"/>
</linearGradient>
<linearGradient id="paint28_linear_18_1418" x1="384.305" y1="-19.0882" x2="366.489" y2="228.322" gradientUnits="userSpaceOnUse">
<stop stop-color="#ADFF00"/>
<stop offset="0.338542" stop-color="#01FF67"/>
<stop offset="0.677083" stop-color="#00FF8F"/>
<stop offset="1" stop-color="#00F0FF"/>
</linearGradient>
<linearGradient id="paint29_linear_18_1418" x1="384.305" y1="-19.0882" x2="366.489" y2="228.322" gradientUnits="userSpaceOnUse">
<stop stop-color="#ADFF00"/>
<stop offset="0.338542" stop-color="#01FF67"/>
<stop offset="0.677083" stop-color="#00FF8F"/>
<stop offset="1" stop-color="#00F0FF"/>
</linearGradient>
<linearGradient id="paint30_linear_18_1418" x1="384.305" y1="-19.0882" x2="366.489" y2="228.322" gradientUnits="userSpaceOnUse">
<stop stop-color="#ADFF00"/>
<stop offset="0.338542" stop-color="#01FF67"/>
<stop offset="0.677083" stop-color="#00FF8F"/>
<stop offset="1" stop-color="#00F0FF"/>
</linearGradient>
<linearGradient id="paint31_linear_18_1418" x1="384.305" y1="-19.0882" x2="366.489" y2="228.322" gradientUnits="userSpaceOnUse">
<stop stop-color="#ADFF00"/>
<stop offset="0.338542" stop-color="#01FF67"/>
<stop offset="0.677083" stop-color="#00FF8F"/>
<stop offset="1" stop-color="#00F0FF"/>
</linearGradient>
<linearGradient id="paint32_linear_18_1418" x1="384.305" y1="-19.0882" x2="366.489" y2="228.322" gradientUnits="userSpaceOnUse">
<stop stop-color="#ADFF00"/>
<stop offset="0.338542" stop-color="#01FF67"/>
<stop offset="0.677083" stop-color="#00FF8F"/>
<stop offset="1" stop-color="#00F0FF"/>
</linearGradient>
<linearGradient id="paint33_linear_18_1418" x1="384.305" y1="-19.0882" x2="366.489" y2="228.322" gradientUnits="userSpaceOnUse">
<stop stop-color="#ADFF00"/>
<stop offset="0.338542" stop-color="#01FF67"/>
<stop offset="0.677083" stop-color="#00FF8F"/>
<stop offset="1" stop-color="#00F0FF"/>
</linearGradient>
<linearGradient id="paint34_linear_18_1418" x1="384.305" y1="-19.0882" x2="366.489" y2="228.322" gradientUnits="userSpaceOnUse">
<stop stop-color="#ADFF00"/>
<stop offset="0.338542" stop-color="#01FF67"/>
<stop offset="0.677083" stop-color="#00FF8F"/>
<stop offset="1" stop-color="#00F0FF"/>
</linearGradient>
<linearGradient id="paint35_linear_18_1418" x1="384.305" y1="-19.0882" x2="366.489" y2="228.322" gradientUnits="userSpaceOnUse">
<stop stop-color="#ADFF00"/>
<stop offset="0.338542" stop-color="#01FF67"/>
<stop offset="0.677083" stop-color="#00FF8F"/>
<stop offset="1" stop-color="#00F0FF"/>
</linearGradient>
<linearGradient id="paint36_linear_18_1418" x1="384.305" y1="-19.0882" x2="366.489" y2="228.322" gradientUnits="userSpaceOnUse">
<stop stop-color="#ADFF00"/>
<stop offset="0.338542" stop-color="#01FF67"/>
<stop offset="0.677083" stop-color="#00FF8F"/>
<stop offset="1" stop-color="#00F0FF"/>
</linearGradient>
<linearGradient id="paint37_linear_18_1418" x1="384.305" y1="-19.0882" x2="366.489" y2="228.322" gradientUnits="userSpaceOnUse">
<stop stop-color="#ADFF00"/>
<stop offset="0.338542" stop-color="#01FF67"/>
<stop offset="0.677083" stop-color="#00FF8F"/>
<stop offset="1" stop-color="#00F0FF"/>
</linearGradient>
<linearGradient id="paint38_linear_18_1418" x1="384.305" y1="-19.0882" x2="366.489" y2="228.322" gradientUnits="userSpaceOnUse">
<stop stop-color="#ADFF00"/>
<stop offset="0.338542" stop-color="#01FF67"/>
<stop offset="0.677083" stop-color="#00FF8F"/>
<stop offset="1" stop-color="#00F0FF"/>
</linearGradient>
<linearGradient id="paint39_linear_18_1418" x1="384.305" y1="-19.0882" x2="366.489" y2="228.322" gradientUnits="userSpaceOnUse">
<stop stop-color="#ADFF00"/>
<stop offset="0.338542" stop-color="#01FF67"/>
<stop offset="0.677083" stop-color="#00FF8F"/>
<stop offset="1" stop-color="#00F0FF"/>
</linearGradient>
<linearGradient id="paint40_linear_18_1418" x1="384.305" y1="-19.0882" x2="366.489" y2="228.322" gradientUnits="userSpaceOnUse">
<stop stop-color="#ADFF00"/>
<stop offset="0.338542" stop-color="#01FF67"/>
<stop offset="0.677083" stop-color="#00FF8F"/>
<stop offset="1" stop-color="#00F0FF"/>
</linearGradient>
<linearGradient id="paint41_linear_18_1418" x1="384.305" y1="-19.0882" x2="366.489" y2="228.322" gradientUnits="userSpaceOnUse">
<stop stop-color="#ADFF00"/>
<stop offset="0.338542" stop-color="#01FF67"/>
<stop offset="0.677083" stop-color="#00FF8F"/>
<stop offset="1" stop-color="#00F0FF"/>
</linearGradient>
<linearGradient id="paint42_linear_18_1418" x1="384.305" y1="-19.0882" x2="366.489" y2="228.322" gradientUnits="userSpaceOnUse">
<stop stop-color="#ADFF00"/>
<stop offset="0.338542" stop-color="#01FF67"/>
<stop offset="0.677083" stop-color="#00FF8F"/>
<stop offset="1" stop-color="#00F0FF"/>
</linearGradient>
<linearGradient id="paint43_linear_18_1418" x1="384.305" y1="-19.0882" x2="366.489" y2="228.322" gradientUnits="userSpaceOnUse">
<stop stop-color="#ADFF00"/>
<stop offset="0.338542" stop-color="#01FF67"/>
<stop offset="0.677083" stop-color="#00FF8F"/>
<stop offset="1" stop-color="#00F0FF"/>
</linearGradient>
<linearGradient id="paint44_linear_18_1418" x1="384.305" y1="-19.0882" x2="366.489" y2="228.322" gradientUnits="userSpaceOnUse">
<stop stop-color="#ADFF00"/>
<stop offset="0.338542" stop-color="#01FF67"/>
<stop offset="0.677083" stop-color="#00FF8F"/>
<stop offset="1" stop-color="#00F0FF"/>
</linearGradient>
<linearGradient id="paint45_linear_18_1418" x1="384.305" y1="-19.0882" x2="366.489" y2="228.322" gradientUnits="userSpaceOnUse">
<stop stop-color="#ADFF00"/>
<stop offset="0.338542" stop-color="#01FF67"/>
<stop offset="0.677083" stop-color="#00FF8F"/>
<stop offset="1" stop-color="#00F0FF"/>
</linearGradient>
<linearGradient id="paint46_linear_18_1418" x1="384.305" y1="-19.0882" x2="366.489" y2="228.322" gradientUnits="userSpaceOnUse">
<stop stop-color="#ADFF00"/>
<stop offset="0.338542" stop-color="#01FF67"/>
<stop offset="0.677083" stop-color="#00FF8F"/>
<stop offset="1" stop-color="#00F0FF"/>
</linearGradient>
<linearGradient id="paint47_linear_18_1418" x1="384.305" y1="-19.0882" x2="366.489" y2="228.322" gradientUnits="userSpaceOnUse">
<stop stop-color="#ADFF00"/>
<stop offset="0.338542" stop-color="#01FF67"/>
<stop offset="0.677083" stop-color="#00FF8F"/>
<stop offset="1" stop-color="#00F0FF"/>
</linearGradient>
<linearGradient id="paint48_linear_18_1418" x1="384.305" y1="-19.0882" x2="366.489" y2="228.322" gradientUnits="userSpaceOnUse">
<stop stop-color="#ADFF00"/>
<stop offset="0.338542" stop-color="#01FF67"/>
<stop offset="0.677083" stop-color="#00FF8F"/>
<stop offset="1" stop-color="#00F0FF"/>
</linearGradient>
<linearGradient id="paint49_linear_18_1418" x1="384.305" y1="-19.0882" x2="366.489" y2="228.322" gradientUnits="userSpaceOnUse">
<stop stop-color="#ADFF00"/>
<stop offset="0.338542" stop-color="#01FF67"/>
<stop offset="0.677083" stop-color="#00FF8F"/>
<stop offset="1" stop-color="#00F0FF"/>
</linearGradient>
<linearGradient id="paint50_linear_18_1418" x1="384.305" y1="-19.0882" x2="366.489" y2="228.322" gradientUnits="userSpaceOnUse">
<stop stop-color="#ADFF00"/>
<stop offset="0.338542" stop-color="#01FF67"/>
<stop offset="0.677083" stop-color="#00FF8F"/>
<stop offset="1" stop-color="#00F0FF"/>
</linearGradient>
<linearGradient id="paint51_linear_18_1418" x1="384.305" y1="-19.0882" x2="366.489" y2="228.322" gradientUnits="userSpaceOnUse">
<stop stop-color="#ADFF00"/>
<stop offset="0.338542" stop-color="#01FF67"/>
<stop offset="0.677083" stop-color="#00FF8F"/>
<stop offset="1" stop-color="#00F0FF"/>
</linearGradient>
<linearGradient id="paint52_linear_18_1418" x1="384.305" y1="-19.0882" x2="366.489" y2="228.322" gradientUnits="userSpaceOnUse">
<stop stop-color="#ADFF00"/>
<stop offset="0.338542" stop-color="#01FF67"/>
<stop offset="0.677083" stop-color="#00FF8F"/>
<stop offset="1" stop-color="#00F0FF"/>
</linearGradient>
<linearGradient id="paint53_linear_18_1418" x1="384.305" y1="-19.0882" x2="366.489" y2="228.322" gradientUnits="userSpaceOnUse">
<stop stop-color="#ADFF00"/>
<stop offset="0.338542" stop-color="#01FF67"/>
<stop offset="0.677083" stop-color="#00FF8F"/>
<stop offset="1" stop-color="#00F0FF"/>
</linearGradient>
<linearGradient id="paint54_linear_18_1418" x1="384.305" y1="-19.0882" x2="366.489" y2="228.322" gradientUnits="userSpaceOnUse">
<stop stop-color="#ADFF00"/>
<stop offset="0.338542" stop-color="#01FF67"/>
<stop offset="0.677083" stop-color="#00FF8F"/>
<stop offset="1" stop-color="#00F0FF"/>
</linearGradient>
<linearGradient id="paint55_linear_18_1418" x1="384.305" y1="-19.0882" x2="366.489" y2="228.322" gradientUnits="userSpaceOnUse">
<stop stop-color="#ADFF00"/>
<stop offset="0.338542" stop-color="#01FF67"/>
<stop offset="0.677083" stop-color="#00FF8F"/>
<stop offset="1" stop-color="#00F0FF"/>
</linearGradient>
<linearGradient id="paint56_linear_18_1418" x1="384.305" y1="-19.0882" x2="366.489" y2="228.322" gradientUnits="userSpaceOnUse">
<stop stop-color="#ADFF00"/>
<stop offset="0.338542" stop-color="#01FF67"/>
<stop offset="0.677083" stop-color="#00FF8F"/>
<stop offset="1" stop-color="#00F0FF"/>
</linearGradient>
<linearGradient id="paint57_linear_18_1418" x1="384.305" y1="-19.0882" x2="366.489" y2="228.322" gradientUnits="userSpaceOnUse">
<stop stop-color="#ADFF00"/>
<stop offset="0.338542" stop-color="#01FF67"/>
<stop offset="0.677083" stop-color="#00FF8F"/>
<stop offset="1" stop-color="#00F0FF"/>
</linearGradient>
<linearGradient id="paint58_linear_18_1418" x1="384.305" y1="-19.0882" x2="366.489" y2="228.322" gradientUnits="userSpaceOnUse">
<stop stop-color="#ADFF00"/>
<stop offset="0.338542" stop-color="#01FF67"/>
<stop offset="0.677083" stop-color="#00FF8F"/>
<stop offset="1" stop-color="#00F0FF"/>
</linearGradient>
<linearGradient id="paint59_linear_18_1418" x1="384.305" y1="-19.0882" x2="366.489" y2="228.322" gradientUnits="userSpaceOnUse">
<stop stop-color="#ADFF00"/>
<stop offset="0.338542" stop-color="#01FF67"/>
<stop offset="0.677083" stop-color="#00FF8F"/>
<stop offset="1" stop-color="#00F0FF"/>
</linearGradient>
<linearGradient id="paint60_linear_18_1418" x1="384.305" y1="-19.0882" x2="366.489" y2="228.322" gradientUnits="userSpaceOnUse">
<stop stop-color="#ADFF00"/>
<stop offset="0.338542" stop-color="#01FF67"/>
<stop offset="0.677083" stop-color="#00FF8F"/>
<stop offset="1" stop-color="#00F0FF"/>
</linearGradient>
<linearGradient id="paint61_linear_18_1418" x1="384.305" y1="-19.0882" x2="366.489" y2="228.322" gradientUnits="userSpaceOnUse">
<stop stop-color="#ADFF00"/>
<stop offset="0.338542" stop-color="#01FF67"/>
<stop offset="0.677083" stop-color="#00FF8F"/>
<stop offset="1" stop-color="#00F0FF"/>
</linearGradient>
<linearGradient id="paint62_linear_18_1418" x1="384.305" y1="-19.0882" x2="366.489" y2="228.322" gradientUnits="userSpaceOnUse">
<stop stop-color="#ADFF00"/>
<stop offset="0.338542" stop-color="#01FF67"/>
<stop offset="0.677083" stop-color="#00FF8F"/>
<stop offset="1" stop-color="#00F0FF"/>
</linearGradient>
<linearGradient id="paint63_linear_18_1418" x1="384.305" y1="-19.0882" x2="366.489" y2="228.322" gradientUnits="userSpaceOnUse">
<stop stop-color="#ADFF00"/>
<stop offset="0.338542" stop-color="#01FF67"/>
<stop offset="0.677083" stop-color="#00FF8F"/>
<stop offset="1" stop-color="#00F0FF"/>
</linearGradient>
</defs>
</svg>
