<svg width="180" height="77" viewBox="0 0 180 77" fill="none" xmlns="http://www.w3.org/2000/svg">
<path fill-rule="evenodd" clip-rule="evenodd" d="M61.7565 26.8829H62.7092C63.394 26.8829 63.954 27.4429 63.954 28.1277V44.1447L79.6238 26.8829H81.4685H81.8435H82.4212C83.106 26.8829 83.666 27.4429 83.666 28.1277V45.0335H102.541V48.4758H82.7488C82.6443 48.5044 82.5345 48.5199 82.4212 48.5199H81.4685C80.825 48.5199 80.2916 48.0254 80.2299 47.3975L80.2274 47.3706L80.2272 47.3671L80.2253 47.339V47.3367L80.224 47.3071V47.306L80.2237 47.2751V46.2342V31.5693L64.8365 48.5199H62.7092H62.265H61.7565C61.0717 48.5199 60.5117 47.9599 60.5117 47.2751V28.1277C60.5117 27.4429 61.0717 26.8829 61.7565 26.8829ZM42.5173 26.6914H51.8248C55.3265 26.6914 58.1913 29.5563 58.1913 33.0579V34.8618H54.749V33.5517C54.749 31.6795 53.2174 30.1479 51.3451 30.1479H42.997C41.1248 30.1479 39.5931 31.6795 39.5931 33.5517V41.962C39.5931 43.8342 41.1248 45.3658 42.997 45.3658H51.3451C53.2174 45.3658 54.749 43.8342 54.749 41.962V40.6519H58.1913V42.4558C58.1913 45.9574 55.3265 48.8223 51.8248 48.8223H42.5173C39.0156 48.8223 36.1508 45.9574 36.1508 42.4558V33.0579C36.1508 29.5563 39.0156 26.6914 42.5173 26.6914ZM35.2623 28.0836V29.1246C35.2623 29.785 34.7223 30.3252 34.0616 30.3252H26.3106V47.6216C26.3106 48.282 25.7703 48.8223 25.1099 48.8223H24.0689C23.4085 48.8223 22.8683 48.282 22.8683 47.6216V30.3252H0V26.8829H24.0689H25.1099H34.0616C34.7223 26.8829 35.2623 27.4231 35.2623 28.0836Z" fill="white"/>
<path fill-rule="evenodd" clip-rule="evenodd" d="M4.28214 5.6568V20.8728H0.0683594V5.6568V1.44302H4.28214H19.4982V5.6568H4.28214ZM98.3547 5.6568V20.8728H102.569V5.6568V1.44302H98.3547H83.1387V5.6568H98.3547ZM36.6163 0H41.5779V7.09964H36.6163V0ZM48.8376 0H53.7992V7.09964H48.8376V0ZM61.0589 0H66.0204V7.09964H61.0589V0ZM36.6163 76.5892H41.5779V69.4895H36.6163V76.5892ZM48.8376 76.5892H53.7992V69.4895H48.8376V76.5892ZM61.0589 76.5892H66.0204V69.4895H61.0589V76.5892ZM4.28214 70.9324V55.7163H0.0683594V70.9324V75.1461H4.28214H19.4982V70.9324H4.28214ZM98.3547 70.9324V55.7163H102.569V70.9324V75.1461H98.3547H83.1387V70.9324H98.3547Z" fill="white"/>
<path fill-rule="evenodd" clip-rule="evenodd" d="M12.4873 14.8149H90.1451V43.6215H85.0773V28.1277C85.0773 26.6637 83.8846 25.4709 82.4205 25.4709H78.998L65.3653 40.4886V28.1277C65.3653 26.6637 64.1725 25.4709 62.7085 25.4709H61.7558C60.2918 25.4709 59.099 26.6637 59.099 28.1277V30.3095C57.9834 27.376 55.1385 25.2794 51.8242 25.2794H42.5166C40.1917 25.2794 38.0977 26.311 36.6697 27.9395C36.5945 26.5664 35.4525 25.4709 34.061 25.4709H12.4873V14.8149ZM90.1451 49.8877V61.7739H12.4873V31.7371H21.4556V47.6216C21.4556 49.0612 22.6286 50.2342 24.0683 50.2342H25.1092C26.5489 50.2342 27.7219 49.0612 27.7219 47.6216V31.7371H34.061C34.3448 31.7371 34.6183 31.6916 34.8744 31.6072C34.785 32.0776 34.7382 32.5624 34.7382 33.0579V42.4558C34.7382 46.7366 38.2358 50.2342 42.5166 50.2342H51.8242C55.1385 50.2342 57.9834 48.1376 59.099 45.2041V47.2751C59.099 48.7391 60.2918 49.9319 61.7558 49.9319H65.4609L78.8111 35.2254V47.2829L78.8127 47.3658L78.8132 47.3662L78.8127 47.3877L78.818 47.4706L78.8233 47.527C78.9486 48.8877 80.1016 49.9319 81.4678 49.9319H82.4205C82.5822 49.9319 82.7433 49.917 82.9018 49.8877H90.1451ZM59.099 39.2399V36.2737H53.3364V33.5517C53.3364 32.4588 52.4373 31.5598 51.3445 31.5598H42.9963C41.9035 31.5598 41.0044 32.4588 41.0044 33.5517V41.9619C41.0044 43.0548 41.9035 43.9538 42.9963 43.9538H51.3445C52.4373 43.9538 53.3364 43.0548 53.3364 41.9619V39.2399H59.099Z" fill="white"/>
<path d="M126.131 23.1248H124.167V29.1974H122.833V23.1248H120.907V22.1195H126.131V23.1248ZM126.622 25.2094C126.622 24.2733 126.868 23.5002 127.357 22.8947C127.849 22.2893 128.521 21.9854 129.377 21.9854C130.228 21.9854 130.901 22.287 131.392 22.8925C131.886 23.4958 132.134 24.2688 132.134 25.2094V26.1142C132.134 27.0592 131.888 27.8322 131.397 28.4311C130.905 29.032 130.235 29.3315 129.384 29.3315C128.524 29.3315 127.849 29.032 127.357 28.4311C126.868 27.8322 126.622 27.0592 126.622 26.1142V25.2094ZM127.949 26.1075C127.949 26.7554 128.068 27.2872 128.305 27.7027C128.539 28.1183 128.899 28.3261 129.384 28.3261C129.855 28.3261 130.21 28.1183 130.447 27.7027C130.686 27.2872 130.805 26.7554 130.805 26.1075V25.2027C130.805 24.5637 130.686 24.0341 130.447 23.6163C130.21 23.1986 129.853 22.9908 129.377 22.9908C128.897 22.9908 128.539 23.1986 128.305 23.6142C128.068 24.0297 127.949 24.5592 127.949 25.2027V26.1075ZM138.633 26.2438C138.633 27.1776 138.428 27.9238 138.017 28.4868C137.608 29.05 137.038 29.3315 136.31 29.3315C135.964 29.3315 135.662 29.2645 135.398 29.1282C135.137 28.9941 134.913 28.7952 134.726 28.5338V31.9186H133.396V22.1195H134.581L134.665 22.9282C134.853 22.6266 135.083 22.3943 135.354 22.2312C135.624 22.0681 135.939 21.9854 136.296 21.9854C137.034 21.9854 137.608 22.296 138.017 22.9148C138.428 23.5337 138.633 24.3537 138.633 25.3747V26.2438ZM137.304 25.3747C137.304 24.6799 137.19 24.1146 136.96 23.6744C136.732 23.2365 136.39 23.0177 135.937 23.0177C135.653 23.0177 135.41 23.098 135.208 23.2589C135.01 23.422 134.847 23.6409 134.726 23.9203V27.5017C134.842 27.7675 135.003 27.9708 135.202 28.1137C135.403 28.2546 135.651 28.3261 135.941 28.3261C136.401 28.3261 136.741 28.1362 136.967 27.7541C137.192 27.3721 137.304 26.8693 137.304 26.2438V25.3747ZM143.868 23.1248H141.25V29.1974H139.929V22.1195H143.868V23.1248ZM144.38 25.2094C144.38 24.2733 144.625 23.5002 145.115 22.8947C145.606 22.2893 146.279 21.9854 147.135 21.9854C147.986 21.9854 148.658 22.287 149.15 22.8925C149.644 23.4958 149.892 24.2688 149.892 25.2094V26.1142C149.892 27.0592 149.646 27.8322 149.154 28.4311C148.663 29.032 147.992 29.3315 147.141 29.3315C146.281 29.3315 145.606 29.032 145.115 28.4311C144.625 27.8322 144.38 27.0592 144.38 26.1142V25.2094ZM145.707 26.1075C145.707 26.7554 145.825 27.2872 146.062 27.7027C146.297 28.1183 146.656 28.3261 147.141 28.3261C147.613 28.3261 147.968 28.1183 148.205 27.7027C148.444 27.2872 148.562 26.7554 148.562 26.1075V25.2027C148.562 24.5637 148.444 24.0341 148.205 23.6163C147.968 23.1986 147.611 22.9908 147.135 22.9908C146.654 22.9908 146.297 23.1986 146.062 23.6142C145.825 24.0297 145.707 24.5592 145.707 25.2027V26.1075ZM151.239 29.1974V22.1195H153.661C154.447 22.1195 155.059 22.2826 155.499 22.6064C155.94 22.9328 156.161 23.4153 156.161 24.0565C156.161 24.3984 156.067 24.7 155.877 24.9658C155.687 25.2339 155.417 25.4305 155.068 25.5624C155.504 25.663 155.839 25.8617 156.074 26.1612C156.306 26.4582 156.422 26.8068 156.422 27.2023C156.422 27.8614 156.214 28.3573 155.801 28.6948C155.386 29.0299 154.8 29.1974 154.041 29.1974H151.239ZM152.561 26.0874V28.1921H154.041C154.389 28.1921 154.653 28.1026 154.831 27.9217C155.01 27.7429 155.1 27.4792 155.1 27.133C155.1 26.8045 155.012 26.5477 154.836 26.3645C154.659 26.179 154.394 26.0874 154.041 26.0874H152.561ZM152.561 25.149H153.746C154.108 25.1446 154.38 25.0574 154.563 24.8899C154.746 24.7201 154.838 24.4743 154.838 24.1504C154.838 23.8041 154.74 23.5471 154.543 23.3774C154.349 23.2097 154.054 23.1248 153.661 23.1248H152.561V25.149ZM162.754 22.1195V29.1974H161.424V23.1248H159.657V25.1735C159.657 26.57 159.49 27.5888 159.157 28.2322C158.822 28.8757 158.25 29.1974 157.439 29.1974H157.157V28.1385L157.361 28.1317C157.738 28.1317 157.995 27.9194 158.129 27.4973C158.261 27.0749 158.328 26.3042 158.328 25.1869V22.1195H162.754ZM169.077 22.1195V29.1974H167.754V26.4895H166.568L165.207 29.1974H163.833L165.305 26.275C164.912 26.1053 164.611 25.8483 164.398 25.5066C164.188 25.1647 164.081 24.7692 164.081 24.3202C164.081 23.6767 164.298 23.1495 164.733 22.7362C165.167 22.3249 165.757 22.1195 166.503 22.1195H169.077ZM165.41 24.3447C165.41 24.6732 165.498 24.9524 165.672 25.1869C165.846 25.4217 166.101 25.5378 166.431 25.5378H167.754V23.1248H166.503C166.145 23.1248 165.873 23.2432 165.687 23.4824C165.502 23.7213 165.41 24.0074 165.41 24.3447ZM123.872 39.9771C124.205 39.9771 124.484 39.8499 124.71 39.5929C124.938 39.3382 125.052 38.9963 125.052 38.5696H126.242L126.256 38.6075C126.274 39.2755 126.048 39.8385 125.579 40.2965C125.11 40.7545 124.54 40.9826 123.872 40.9826C122.992 40.9826 122.317 40.6831 121.848 40.0865C121.379 39.4879 121.144 38.7282 121.144 37.8032V36.8292C121.144 35.9042 121.379 35.1401 121.848 34.539C122.317 33.938 122.99 33.6364 123.868 33.6364C124.583 33.6364 125.163 33.8755 125.61 34.3537C126.057 34.8295 126.276 35.4485 126.263 36.2081L126.242 36.246H125.052C125.052 35.77 124.942 35.3835 124.728 35.0865C124.511 34.7893 124.225 34.6419 123.868 34.6419C123.36 34.6419 123.001 34.8473 122.791 35.2586C122.578 35.6696 122.473 36.1901 122.473 36.8202V37.7988C122.473 38.4377 122.578 38.9605 122.791 39.3671C123.001 39.7738 123.363 39.9771 123.872 39.9771ZM132.474 40.8485H131.144V37.8189H128.787V40.8485H127.46V33.7705H128.787V36.8135H131.144V33.7705H132.474V40.8485ZM137.63 40.8485C137.584 40.6854 137.543 40.5267 137.512 40.3726C137.483 40.2163 137.463 40.0597 137.454 39.9033C137.257 40.2207 137.012 40.482 136.714 40.681C136.417 40.882 136.089 40.9826 135.727 40.9826C135.128 40.9826 134.661 40.7948 134.322 40.4173C133.984 40.0398 133.814 39.5348 133.814 38.9024C133.814 38.2277 134.045 37.6982 134.505 37.3117C134.965 36.9252 135.613 36.733 136.446 36.733H137.434V36.0092C137.434 35.5801 137.338 35.2451 137.146 35.0037C136.953 34.7624 136.681 34.6419 136.328 34.6419C136.011 34.6419 135.754 34.7513 135.559 34.968C135.365 35.1848 135.269 35.4552 135.269 35.7813L134.004 35.7746L133.984 35.7367C133.964 35.1892 134.181 34.7022 134.639 34.2755C135.097 33.8487 135.689 33.6364 136.413 33.6364C137.112 33.6364 137.677 33.842 138.111 34.2554C138.546 34.6664 138.763 35.254 138.763 36.0182V39.3047C138.763 39.5795 138.779 39.8431 138.812 40.0999C138.846 40.3546 138.9 40.6049 138.973 40.8485H137.63ZM136.026 39.9771C136.337 39.9771 136.618 39.8855 136.875 39.7023C137.13 39.5191 137.318 39.289 137.434 39.0142V37.5643H136.426C136.019 37.5643 135.704 37.6938 135.481 37.9552C135.255 38.2143 135.144 38.5316 135.144 38.9091C135.144 39.2265 135.22 39.4856 135.372 39.6822C135.526 39.8788 135.743 39.9771 136.026 39.9771ZM142.986 34.1994C143.788 34.1994 144.42 34.4989 144.883 35.0999C145.345 35.6985 145.577 36.4716 145.577 37.4167V37.5932C145.577 38.5964 145.332 39.4118 144.84 40.0398C144.351 40.6675 143.676 40.9826 142.82 40.9826C141.967 40.9826 141.294 40.6675 140.805 40.0398C140.316 39.4118 140.072 38.5964 140.072 37.5932V36.6168C140.072 35.1915 140.325 34.0588 140.828 33.2186C141.332 32.3785 141.994 31.8715 142.816 31.6971C143.229 31.6011 143.533 31.4805 143.727 31.3353C143.922 31.1923 144.02 30.971 144.02 30.6739H145.041L145.055 30.7142C145.07 31.4336 144.909 31.9228 144.565 32.1775C144.223 32.4345 143.683 32.6244 142.945 32.7516C142.492 32.8344 142.114 33.0556 141.813 33.4175C141.513 33.7794 141.321 34.2822 141.239 34.9255L141.256 34.959C141.471 34.7335 141.728 34.5503 142.029 34.4094C142.331 34.2688 142.648 34.1994 142.986 34.1994ZM142.816 35.2049C142.34 35.2049 141.985 35.4149 141.748 35.835C141.513 36.2527 141.395 36.7799 141.395 37.4144V37.5909C141.395 38.2858 141.513 38.8578 141.748 39.3047C141.985 39.7537 142.342 39.9771 142.82 39.9771C143.296 39.9771 143.654 39.7537 143.893 39.3047C144.13 38.8578 144.248 38.2858 144.248 37.5909V37.4144C144.248 36.7755 144.13 36.2481 143.893 35.8304C143.654 35.4126 143.294 35.2049 142.816 35.2049ZM151.896 37.8189H151.201V40.8485H149.878V37.8189H149.19L147.751 40.8485H146.069L148.169 37.0145L146.214 33.7705H147.863L149.244 36.6929H149.878V33.7705H151.201V36.6929H151.855L153.236 33.7705H154.878L152.921 37.0145L155.024 40.8485H153.335L151.896 37.8189ZM158.393 40.9826C157.55 40.9826 156.878 40.6898 156.371 40.1066C155.866 39.5214 155.611 38.7729 155.611 37.8613V36.8292C155.611 35.9042 155.859 35.1401 156.355 34.539C156.849 33.938 157.479 33.6364 158.243 33.6364C159.045 33.6364 159.664 33.9091 160.095 34.4564C160.526 35.0037 160.743 35.7388 160.743 36.6615V37.5775H156.934V37.859C156.934 38.4713 157.068 38.9762 157.336 39.3761C157.604 39.7761 157.986 39.9771 158.478 39.9771C158.846 39.9771 159.159 39.919 159.42 39.8029C159.684 39.6866 159.932 39.5191 160.167 39.2957L160.587 40.1201C160.363 40.3726 160.064 40.5804 159.688 40.7411C159.313 40.9021 158.882 40.9826 158.393 40.9826ZM158.243 34.6419C157.859 34.6419 157.55 34.8295 157.32 35.2026C157.088 35.578 156.961 36.0515 156.934 36.6258H159.427V36.3555C159.427 35.8528 159.327 35.4417 159.125 35.1221C158.927 34.8027 158.632 34.6419 158.243 34.6419ZM166.956 40.8485H165.627V37.8189H163.27V40.8485H161.943V33.7705H163.27V36.8135H165.627V33.7705H166.956V40.8485ZM172.225 33.7705H173.547V40.8485H172.225V36.0494L172.184 36.0427L169.854 40.8485H168.527V33.7705H169.854V38.5652L169.894 38.5696L172.225 33.7705ZM177.649 40.9826C176.807 40.9826 176.135 40.6898 175.627 40.1066C175.122 39.5214 174.868 38.7729 174.868 37.8613V36.8292C174.868 35.9042 175.116 35.1401 175.612 34.539C176.106 33.938 176.736 33.6364 177.5 33.6364C178.302 33.6364 178.921 33.9091 179.352 34.4564C179.783 35.0037 180 35.7388 180 36.6615V37.5775H176.19V37.859C176.19 38.4713 176.325 38.9762 176.593 39.3761C176.861 39.7761 177.243 39.9771 177.734 39.9771C178.103 39.9771 178.416 39.919 178.677 39.8029C178.941 39.6866 179.189 39.5191 179.423 39.2957L179.843 40.1201C179.62 40.3726 179.321 40.5804 178.945 40.7411C178.57 40.9021 178.139 40.9826 177.649 40.9826ZM177.5 34.6419C177.115 34.6419 176.807 34.8295 176.577 35.2026C176.345 35.578 176.217 36.0515 176.19 36.6258H178.684V36.3555C178.684 35.8528 178.583 35.4417 178.382 35.1221C178.183 34.8027 177.888 34.6419 177.5 34.6419ZM125.13 45.4216H126.452V52.4995H125.13V47.7004L125.09 47.6937L122.759 52.4995H121.432V45.4216H122.759V50.2162L122.8 50.2206L125.13 45.4216ZM133.03 52.4995H131.701V49.47H129.344V52.4995H128.017V45.4216H129.344V48.4645H131.701V45.4216H133.03V52.4995ZM139.614 52.4995H138.285V49.47H135.928V52.4995H134.601V45.4216H135.928V48.4645H138.285V45.4216H139.614V52.4995ZM140.904 48.5114C140.904 47.5753 141.149 46.8023 141.639 46.1967C142.13 45.5914 142.803 45.2874 143.658 45.2874C144.51 45.2874 145.182 45.5891 145.674 46.1946C146.167 46.7979 146.415 47.5709 146.415 48.5114V49.4163C146.415 50.3613 146.17 51.1343 145.678 51.7332C145.187 52.3341 144.516 52.6336 143.665 52.6336C142.805 52.6336 142.13 52.3341 141.639 51.7332C141.149 51.1343 140.904 50.3613 140.904 49.4163V48.5114ZM142.231 49.4096C142.231 50.0575 142.349 50.5893 142.586 51.0048C142.82 51.4204 143.18 51.6281 143.665 51.6281C144.136 51.6281 144.492 51.4204 144.729 51.0048C144.968 50.5893 145.086 50.0575 145.086 49.4096V48.5047C145.086 47.8658 144.968 47.3362 144.729 46.9184C144.492 46.5007 144.134 46.2929 143.658 46.2929C143.178 46.2929 142.82 46.5007 142.586 46.9163C142.349 47.3318 142.231 47.8612 142.231 48.5047V49.4096ZM147.763 52.4995V45.4216H150.184C150.971 45.4216 151.583 45.5847 152.023 45.9085C152.463 46.2349 152.685 46.7174 152.685 47.3586C152.685 47.7005 152.591 48.0021 152.401 48.2679C152.211 48.536 151.941 48.7326 151.592 48.8644C152.028 48.965 152.363 49.1638 152.598 49.4633C152.83 49.7603 152.946 50.1089 152.946 50.5044C152.946 51.1634 152.738 51.6594 152.325 51.9968C151.909 52.332 151.324 52.4995 150.564 52.4995H147.763ZM149.085 49.3895V51.4942H150.564C150.913 51.4942 151.177 51.4047 151.355 51.2238C151.534 51.045 151.623 50.7813 151.623 50.435C151.623 50.1066 151.536 49.8498 151.36 49.6666C151.183 49.4811 150.917 49.3895 150.564 49.3895H149.085ZM149.085 48.4511H150.269C150.631 48.4467 150.904 48.3595 151.087 48.192C151.27 48.0222 151.362 47.7763 151.362 47.4525C151.362 47.1062 151.264 46.8492 151.067 46.6794C150.873 46.5118 150.578 46.4269 150.184 46.4269H149.085V48.4511ZM157.83 52.4995C157.783 52.3364 157.743 52.1777 157.711 52.0237C157.682 51.8673 157.662 51.7107 157.653 51.5544C157.457 51.8717 157.211 52.1331 156.914 52.332C156.617 52.533 156.288 52.6336 155.926 52.6336C155.328 52.6336 154.861 52.4458 154.521 52.0683C154.184 51.6908 154.014 51.1858 154.014 50.5535C154.014 49.8787 154.244 49.3493 154.704 48.9627C155.164 48.5762 155.812 48.384 156.646 48.384H157.633V47.6602C157.633 47.2312 157.537 46.8962 157.345 46.6547C157.153 46.4135 156.88 46.2929 156.527 46.2929C156.21 46.2929 155.953 46.4023 155.759 46.6191C155.564 46.8358 155.468 47.1062 155.468 47.4324L154.204 47.4257L154.184 47.3877C154.164 46.8402 154.38 46.3533 154.838 45.9265C155.296 45.4998 155.888 45.2874 156.612 45.2874C157.312 45.2874 157.877 45.4931 158.31 45.9064C158.746 46.3175 158.963 46.905 158.963 47.6692V50.9557C158.963 51.2305 158.978 51.4942 159.012 51.751C159.045 52.0057 159.099 52.2559 159.173 52.4995H157.83ZM156.226 51.6281C156.536 51.6281 156.818 51.5365 157.075 51.3533C157.329 51.1701 157.517 50.94 157.633 50.6652V49.2153H156.626C156.219 49.2153 155.904 49.3448 155.681 49.6062C155.455 49.8653 155.343 50.1827 155.343 50.5602C155.343 50.8775 155.419 51.1366 155.571 51.3332C155.725 51.5298 155.942 51.6281 156.226 51.6281ZM160.495 45.4216H161.822V51.4942H164.186V45.4216H165.515V51.4942H166.326L166.228 54.6042H165.004V52.4995H160.495V45.4216ZM171.112 45.4216H172.435V52.4995H171.112V47.7004L171.072 47.6937L168.742 52.4995H167.414V45.4216H168.742V50.2162L168.782 50.2206L171.112 45.4216ZM177.696 45.4216H179.019V52.4995H177.696V47.7004L177.656 47.6937L175.326 52.4995H173.999V45.4216H175.326V50.2162L175.366 50.2206L177.696 45.4216Z" fill="white"/>
<rect x="110.473" y="14.7314" width="3.26881" height="47.1642" rx="1.6344" fill="white"/>
</svg>
