<svg width="240" height="51" viewBox="0 0 240 51" fill="none" xmlns="http://www.w3.org/2000/svg">
<g clip-path="url(#clip0_18_545)">
<path d="M108.171 44.9233H110.66L110.305 50.9804H107.934L107.697 47.655H95.6076L95.489 50.9804H93V44.9233H94.5408C95.6076 43.0231 96.3188 40.7665 96.6743 38.2725C97.0298 36.3721 97.1484 33.7594 97.1484 30.3151H108.171V44.9233ZM100.111 32.9279C100.111 35.0657 99.8744 37.2036 99.5189 39.3413C99.0447 41.7167 98.452 43.6169 97.7409 44.9233H105.327V32.9279H100.111ZM133.891 47.655V30.3151H136.736L142.188 38.6288H142.306L147.758 30.3151H150.722V47.655H147.758V35.1844H147.64L142.306 43.2606L136.854 35.1844H136.736V47.655H133.891ZM162.93 47.7737C160.44 47.7737 158.307 46.9423 156.648 45.3984C154.988 43.8544 154.158 41.7167 154.158 38.985C154.158 36.4909 154.987 34.3532 156.529 32.5717C158.07 30.909 160.085 30.0775 162.812 30.0775C165.537 30.0775 167.907 31.1465 169.685 33.403L167.433 35.1844C166.248 33.6405 164.708 32.8092 162.812 32.8092C161.151 32.8092 159.847 33.403 158.781 34.5907C157.715 35.6596 157.241 37.2036 157.241 38.985C157.241 40.7665 157.715 42.1917 158.781 43.3794C159.847 44.4483 161.27 45.0421 162.93 45.0421C164.708 45.0421 166.248 44.2107 167.551 42.6667L169.685 44.4483C167.907 46.7048 165.656 47.7737 162.93 47.7737ZM176.678 47.655V32.9279H171.819V30.3151H184.619V32.9279H179.642V47.655H176.678ZM188.412 47.655V30.3151H195.286C197.301 30.3151 198.723 30.7902 199.791 31.859C200.739 32.8092 201.213 34.2344 201.213 35.8971C201.213 37.6786 200.621 39.1038 199.553 40.054C198.486 41.004 196.946 41.4792 194.931 41.4792H191.375V47.655H188.412ZM191.375 38.7475H194.694C195.879 38.7475 196.709 38.51 197.301 38.0348C197.894 37.4411 198.131 36.7284 198.131 35.8971C198.131 34.9469 197.894 34.2344 197.301 33.6405C196.827 33.1655 195.997 32.9279 194.931 32.9279H191.375V38.7475ZM212.709 47.7737C210.102 47.7737 208.088 46.9423 206.427 45.2796C204.768 43.6169 203.939 41.4792 203.939 38.985C203.939 36.3721 204.768 34.2344 206.427 32.5717C208.088 30.909 210.102 30.0775 212.709 30.0775C215.199 30.0775 217.332 30.909 218.991 32.5717C220.65 34.2344 221.48 36.3721 221.48 38.985C221.48 41.5979 220.65 43.7356 218.991 45.3984C217.332 46.9423 215.199 47.7737 212.709 47.7737ZM212.709 45.0421C214.37 45.0421 215.673 44.4483 216.74 43.2606C217.806 42.1917 218.399 40.6477 218.399 38.985C218.399 37.2036 217.806 35.6596 216.74 34.5907C215.673 33.403 214.37 32.8092 212.709 32.8092C211.05 32.8092 209.747 33.403 208.68 34.5907C207.614 35.7784 207.021 37.2036 207.021 38.985C207.021 40.6477 207.614 42.0729 208.68 43.2606C209.747 44.4483 211.05 45.0421 212.709 45.0421ZM236.415 26.1582C235.821 27.9398 234.518 28.8899 232.385 28.8899C230.252 28.8899 228.948 27.9398 228.354 26.1582H230.844C230.963 26.2771 231.081 26.3959 231.081 26.5146C231.437 26.9896 231.792 27.1084 232.385 27.1084C232.977 27.1084 233.333 26.9896 233.688 26.5146C233.807 26.3959 233.807 26.2771 233.925 26.1582H236.415ZM225.273 47.655V30.3151H228.236V42.6667H228.354L236.652 30.3151H239.259V47.655H236.297V35.3033L227.88 47.655H225.273Z" fill="white"/>
<path fill-rule="evenodd" clip-rule="evenodd" d="M117.89 30.1963H125.12L130.217 35.3032V42.5479L125.12 47.655H117.89L115.401 45.0421L112.794 42.5479V35.3032L115.401 32.8092L117.89 30.1963ZM121.565 32.9279C124.883 32.9279 127.609 35.5408 127.609 38.8663C127.609 42.3104 124.883 44.9233 121.565 44.9233C118.246 44.9233 115.52 42.3104 115.52 38.8663C115.52 35.5408 118.246 32.9279 121.565 32.9279Z" fill="white"/>
<path d="M93.3555 22.4765V3.23638H96.6742L102.719 12.2626L108.882 3.23638H112.082V22.4765H108.882V8.93716H108.764L102.719 17.9634L96.6742 8.93716V22.4765H93.3555ZM126.187 22.714C123.342 22.714 120.972 21.764 119.194 19.8636C117.416 18.0821 116.586 15.7068 116.586 12.8564C116.586 10.0061 117.416 7.63072 119.194 5.84923C120.972 3.94896 123.342 2.99884 126.187 2.99884C129.031 2.99884 131.283 3.94896 133.18 5.73046C134.958 7.63072 135.906 10.0061 135.906 12.8564C135.906 15.8257 134.958 18.0821 133.18 19.9824C131.283 21.764 129.031 22.714 126.187 22.714ZM126.187 19.6261C127.965 19.6261 129.505 19.0323 130.691 17.7259C131.876 16.4194 132.469 14.7567 132.469 12.8564C132.469 10.9562 131.876 9.29345 130.691 7.98702C129.505 6.79935 127.965 6.08677 126.187 6.08677C124.409 6.08677 122.868 6.79935 121.683 8.10579C120.498 9.29345 119.905 10.9562 119.905 12.8564C119.905 14.7567 120.498 16.4194 121.683 17.7259C122.868 19.0323 124.409 19.6261 126.187 19.6261ZM140.528 22.4765V3.23638H143.728V11.7875H152.854V3.23638H156.055V22.4765H152.854V14.7567H143.728V22.4765H140.528ZM170.04 22.714C167.196 22.714 164.826 21.764 163.048 19.8636C161.269 18.0821 160.321 15.7068 160.321 12.8564C160.321 10.0061 161.269 7.63072 163.048 5.84923C164.826 3.94896 167.196 2.99884 170.04 2.99884C172.885 2.99884 175.137 3.94896 176.914 5.73046C178.812 7.63072 179.641 10.0061 179.641 12.8564C179.641 15.8257 178.812 18.0821 176.914 19.9824C175.137 21.764 172.885 22.714 170.04 22.714ZM170.04 19.6261C171.819 19.6261 173.359 19.0323 174.544 17.7259C175.729 16.4194 176.322 14.7567 176.322 12.8564C176.322 10.9562 175.729 9.29345 174.544 7.98702C173.359 6.79935 171.819 6.08677 170.04 6.08677C168.144 6.08677 166.722 6.79935 165.537 8.10579C164.352 9.29345 163.759 10.9562 163.759 12.8564C163.759 14.7567 164.352 16.4194 165.537 17.7259C166.722 19.0323 168.144 19.6261 170.04 19.6261ZM186.16 3.23638H199.197V22.4765H195.997V6.20552H189.241C189.123 9.53099 189.004 12.2626 188.767 14.5192C188.412 17.2507 187.938 19.2698 187.108 20.5763C186.279 21.8827 185.094 22.5953 183.315 22.5953C182.485 22.5953 181.774 22.4765 181.182 22.239L181.419 19.6261C181.656 19.6261 182.011 19.6261 182.485 19.6261C182.841 19.6261 183.196 19.6261 183.552 19.5073C183.789 19.3886 184.026 19.1511 184.263 18.7948C184.5 18.4384 184.618 18.2009 184.855 17.8446C184.975 17.4884 185.094 17.132 185.212 16.5382C185.331 15.9444 185.331 15.4692 185.449 14.9942C185.449 14.5192 185.568 13.9253 185.686 13.2127C185.923 10.5999 186.042 7.27443 186.16 3.23638ZM204.412 22.4765V3.23638H207.613V17.0132H207.732L217.332 3.23638H220.176V22.4765H216.858V8.93716L207.258 22.4765H204.412ZM230.251 22.4765V6.20552H224.206V3.23638H239.259V6.20552H233.451V22.4765H230.251Z" fill="white"/>
<path fill-rule="evenodd" clip-rule="evenodd" d="M0 25.387L25.3654 50.8772L32.1432 44.0661L38.9211 50.9804L42.0018 47.7812L20.0253 25.387L32.1432 13.2095L35.8402 16.9246L27.4192 25.4902L52.6821 50.8772L77.842 25.387L52.6821 0L45.8016 6.81115L38.9211 0L35.8402 3.09598L57.8167 25.387L45.8016 37.6678L42.1045 33.9525L50.5256 25.4902L25.2627 0L0 25.387ZM48.9851 10.0103L52.5793 6.29515L71.5777 25.387L52.6821 44.4789L48.9851 40.7636L64.1838 25.387L48.9851 10.0103ZM28.9597 40.8669L25.2627 44.5821L6.26435 25.387L25.1601 6.29515L29.0624 10.0103L13.761 25.4902L28.9597 40.8669ZM33.6837 25.387L38.9211 20.0206L44.1585 25.387L38.9211 30.6502L33.6837 25.387Z" fill="url(#paint0_linear_18_545)"/>
<path d="M41.5813 22.7187L38.9727 25.3401L41.5813 27.9617L44.19 25.3401L41.5813 22.7187Z" fill="white"/>
</g>
<defs>
<linearGradient id="paint0_linear_18_545" x1="0" y1="25.4709" x2="77.8588" y2="25.4709" gradientUnits="userSpaceOnUse">
<stop stop-color="white"/>
<stop offset="1" stop-color="white"/>
</linearGradient>
<clipPath id="clip0_18_545">
<rect width="240" height="50.9804" fill="white"/>
</clipPath>
</defs>
</svg>
