<svg width="260" height="60" viewBox="0 0 260 60" fill="none" xmlns="http://www.w3.org/2000/svg">
<path fill-rule="evenodd" clip-rule="evenodd" d="M59.3323 29.6326C59.3323 13.2743 46.0579 0 29.6996 0C13.2743 0 0 13.3414 0 29.6996C0 46.0579 13.3414 59.3323 29.6996 59.3323C46.0579 59.3323 59.3323 45.9909 59.3323 29.6326ZM27.8905 21.1251V22.6774C16.6044 25.3096 9.12575 38.4703 18.984 46.7043C21.5676 48.864 23.1993 49.4714 24.695 49.5389C26.4627 49.6064 33.2616 48.9315 34.9613 48.5265C36.661 48.0541 38.2247 47.2442 40.1964 45.6919C45.4314 41.44 46.0433 33.746 41.6921 28.5491C41.4708 28.305 41.2851 28.0786 41.106 27.8602C40.7898 27.4748 40.4944 27.1146 40.0604 26.7269C36.3956 23.7012 34.0864 23.2515 32.7296 22.9873C31.5442 22.7564 31.0859 22.6672 31.0859 21.1251H27.8905ZM13.9529 29.764C16.0605 25.917 20.8877 22.205 25.4429 21.1251C25.4429 18.808 25.4863 18.8142 27.3723 19.0826C27.8485 19.1503 28.4422 19.2348 29.1823 19.3028C31.6997 19.4922 32.4838 19.1929 32.6871 19.4181C32.8462 19.5942 32.6497 20.0915 32.6497 21.3951C36.0491 22.205 39.1085 24.8371 41.4881 27.1318C42.7799 28.4816 43.7997 29.764 44.6156 31.4513C47.6071 37.3905 46.5872 43.7347 40.9442 47.8516C39.0406 49.2014 37.4768 49.9438 36.1171 50.2813H24.5591C21.3379 49.9678 20.053 49.0719 18.088 47.7017C17.9378 47.5969 17.7836 47.4894 17.6243 47.3792C11.5053 43.1947 10.6895 35.5682 13.9529 29.764ZM34.5533 37.188C33.8055 38.2679 31.7658 41.5074 31.0859 42.7223C31.3381 42.6722 31.6775 42.5397 32.061 42.3899C33.2287 41.9338 34.8055 41.3179 35.5732 42.3848C35.7075 42.5945 35.804 42.8525 35.8992 43.1074C36.1412 43.755 36.3754 44.3818 37.2049 44.1396C36.389 45.287 35.7091 44.6795 35.0972 44.0046C34.0774 42.8573 33.8055 42.9248 32.3777 44.0721C32.3147 44.1243 32.2525 44.1768 32.1902 44.2294C31.4467 44.8573 30.6981 45.4894 28.5024 45.4894L28.1624 43.9371C26.5987 44.9495 23.2673 46.8393 22.6554 43.8696C21.8395 40.0901 26.7347 24.3647 33.3295 28.0092C35.2332 29.0891 35.5732 33.611 33.1936 34.2184C34.2814 33.0036 34.4853 29.0216 31.4259 29.494C27.6185 30.1014 23.4713 40.2251 23.5392 43.1947C23.5392 44.2746 23.7432 44.5445 25.171 43.9371C27.6865 42.9248 30.814 38.3354 32.1737 35.8382C32.5716 36.0509 32.9282 36.2635 33.2744 36.4701C33.6973 36.7223 34.1047 36.9654 34.5533 37.188ZM24.0152 15.3883C23.3353 14.4435 22.5194 13.1611 22.5194 11.8788C22.5194 8.23427 28.9103 8.8417 31.7658 9.71908C36.253 11.0689 35.0972 12.8912 31.4939 18.223H29.6582C30.007 17.6921 30.6739 17.0585 31.4005 16.3683C32.7984 15.0403 34.4174 13.5023 34.4174 12.0813C34.4174 9.17915 26.9387 10.8664 25.171 11.8788C25.171 13.9385 26.2854 15.1433 27.2621 16.1992C27.8856 16.8733 28.4529 17.4866 28.6384 18.223H26.2588C25.8584 17.4678 25.458 17.0403 25.016 16.5684C24.7074 16.2389 24.3785 15.8878 24.0152 15.3883Z" fill="white"/>
<path d="M91.2146 48.7334H94.9451L87.7125 31.2229H84.6672L77.4346 48.7334H81.1651L82.4593 45.3836H89.8442L91.2146 48.7334ZM83.7536 42.1099L86.1898 35.867L88.6261 42.1099H83.7536ZM109.943 48.7334L105.527 42.6428C108.116 41.8815 109.563 39.5214 109.563 37.0851C109.563 33.7353 107.431 31.2229 102.939 31.2229H96.6961V48.7334H100.046V42.8712H102.025L105.984 48.7334H109.943ZM99.9698 34.5727H103.32C104.918 34.5727 106.213 35.4102 106.213 37.0851C106.213 38.5316 104.918 39.5975 103.32 39.5975H99.9698V34.5727ZM119.917 30.8422C114.892 30.8422 110.781 34.9534 110.781 39.9782C110.781 45.0029 114.892 49.1141 119.917 49.1141C124.941 49.1141 129.052 45.0029 129.052 39.9782C129.052 34.9534 124.941 30.8422 119.917 30.8422ZM119.917 45.8404C116.719 45.8404 114.054 43.2519 114.054 39.9782C114.054 36.7045 116.643 34.1159 119.917 34.1159C123.114 34.1159 125.779 36.7045 125.779 39.9782C125.779 43.2519 123.19 45.8404 119.917 45.8404ZM149.075 31.2229H145.725L141.158 42.4905L136.59 31.2229H133.24L130.727 48.7334H134.229L135.676 37.3135L140.244 48.7334H141.919L146.487 37.3135L147.933 48.7334H151.435L149.075 31.2229ZM166.357 48.7334H170.088L162.855 31.2229H159.81L152.577 48.7334H156.308L157.602 45.3836H164.987L166.357 48.7334ZM158.973 42.1099L161.409 35.867L163.845 42.1099H158.973ZM185.467 31.2229H179.681V48.7334H185.467C191.329 48.7334 194.679 44.8506 194.679 39.9782C194.679 35.1818 191.481 31.2229 185.467 31.2229ZM186.076 45.3836H183.03V34.5727H186.076C189.197 34.5727 191.329 37.009 191.329 39.9782C191.329 43.0235 189.197 45.3836 186.076 45.3836ZM207.774 34.5727V31.2229H196.963V48.7334H207.774V45.3836H200.313V41.6531H206.555V38.3032H200.313V34.5727H207.774ZM219.041 45.8404C215.691 45.8404 213.027 43.2519 213.027 39.9782C213.027 36.7045 215.767 34.1159 219.041 34.1159C220.716 34.1159 222.239 34.8011 223.381 35.867L224.675 32.8217C223.228 31.4513 220.944 30.7661 218.965 30.7661C213.864 30.7661 209.677 34.8773 209.677 39.902C209.677 44.9268 213.864 49.0379 218.965 49.0379C220.944 49.0379 223.152 48.2766 224.675 46.9062L223.381 43.8609C222.239 45.1552 220.716 45.8404 219.041 45.8404ZM235.257 30.8422C230.233 30.8422 226.121 34.9534 226.121 39.9782C226.121 45.0029 230.233 49.1141 235.257 49.1141C240.282 49.1141 244.393 45.0029 244.393 39.9782C244.393 34.9534 240.282 30.8422 235.257 30.8422ZM235.257 45.8404C232.06 45.8404 229.395 43.2519 229.395 39.9782C229.395 36.7045 231.984 34.1159 235.257 34.1159C238.455 34.1159 241.12 36.7045 241.12 39.9782C241.12 43.2519 238.455 45.8404 235.257 45.8404ZM260 48.7334L255.585 42.6428C258.173 41.8815 259.62 39.5214 259.62 37.0851C259.62 33.7353 257.488 31.2229 252.92 31.2229H246.677V48.7334H250.027V42.8712H252.007L255.965 48.7334H260ZM250.027 34.5727H253.377C254.976 34.5727 256.27 35.4102 256.27 37.0851C256.27 38.5316 254.976 39.5975 253.377 39.5975H250.027V34.5727Z" fill="white"/>
<path d="M83.9058 16.2248C84.7433 15.9203 85.4285 14.7783 85.4285 13.6363C85.4285 11.4285 83.6013 10.2865 80.8605 10.2865H77.4346V23.229H81.9264C84.5149 23.229 86.1137 21.5541 86.1137 19.3463C86.1137 17.9759 85.2762 16.4532 83.9058 16.2248ZM78.7288 11.4285H81.3173C83.2206 11.4285 84.2104 12.1137 84.2104 13.5602C84.2104 15.0067 83.1445 15.6919 81.3173 15.6919H78.7288V11.4285ZM81.6219 21.9348H78.7288V16.9862H81.6219C83.6013 16.9862 84.8194 17.7475 84.8194 19.4985C84.8194 21.1735 83.6013 21.9348 81.6219 21.9348ZM94.1076 10.0581C90.4532 10.0581 87.4841 13.0273 87.4841 16.6816C87.4841 20.336 90.4532 23.3052 94.1076 23.3052C97.762 23.3052 100.731 20.336 100.731 16.6816C100.731 13.0273 97.762 10.0581 94.1076 10.0581ZM94.1076 22.087C91.1384 22.087 88.7022 19.7269 88.7022 16.6816C88.7022 13.7125 91.0623 11.2762 94.1076 11.2762C97.0768 11.2762 99.513 13.6363 99.513 16.6816C99.4369 19.7269 97.0768 22.087 94.1076 22.087ZM110.4 10.2104V17.8998C110.4 20.6405 109.106 22.087 107.05 22.087C104.918 22.087 103.7 20.7167 103.7 17.8998V10.2104H102.482V17.7475C102.482 21.3257 104.081 23.3052 107.126 23.3052C110.019 23.3052 111.77 21.3257 111.77 17.7475V10.2104H110.4ZM113.445 10.2104V11.4285H116.795V23.1529H118.013V11.4285H121.363V10.2104H113.445ZM124.865 23.1529V10.2104H123.647V23.1529H124.865ZM140.092 16.6816C140.092 13.0273 137.122 10.0581 133.468 10.0581C129.814 10.0581 126.845 13.0273 126.845 16.6816C126.845 20.336 129.814 23.3052 133.468 23.3052C134.915 23.3052 136.285 22.8484 137.351 22.0109L138.341 23.1529H140.016L138.188 21.2496C139.406 20.0315 140.092 18.4327 140.092 16.6816ZM133.468 22.087C130.499 22.087 128.063 19.7269 128.063 16.6816C128.063 13.7125 130.423 11.2762 133.468 11.2762C136.437 11.2762 138.874 13.6363 138.874 16.6816C138.874 18.1282 138.341 19.3463 137.503 20.336L135.524 18.2043H134.001L136.59 21.0973C135.676 21.7064 134.61 22.087 133.468 22.087ZM149.76 10.2104V17.8998C149.76 20.6405 148.466 22.087 146.411 22.087C144.279 22.087 143.061 20.7167 143.061 17.8998V10.2104H141.843V17.7475C141.843 21.3257 143.441 23.3052 146.487 23.3052C149.38 23.3052 151.131 21.3257 151.131 17.7475V10.2104H149.76ZM160.571 11.4285V10.2104H153.491V23.1529H160.571V21.9348H154.709V17.2907H159.658V16.0726H154.709V11.4285H160.571Z" fill="white"/>
</svg>
